%TF.GenerationSoftware,KiCad,Pcbnew,(6.0.4-0)*%
%TF.CreationDate,2022-07-10T14:03:27-04:00*%
%TF.ProjectId,VIC1005Reloaded-1.0-001,56494331-3030-4355-9265-6c6f61646564,1.0-001*%
%TF.SameCoordinates,Original*%
%TF.FileFunction,Soldermask,Top*%
%TF.FilePolarity,Negative*%
%FSLAX46Y46*%
G04 Gerber Fmt 4.6, Leading zero omitted, Abs format (unit mm)*
G04 Created by KiCad (PCBNEW (6.0.4-0)) date 2022-07-10 14:03:27*
%MOMM*%
%LPD*%
G01*
G04 APERTURE LIST*
G04 Aperture macros list*
%AMRoundRect*
0 Rectangle with rounded corners*
0 $1 Rounding radius*
0 $2 $3 $4 $5 $6 $7 $8 $9 X,Y pos of 4 corners*
0 Add a 4 corners polygon primitive as box body*
4,1,4,$2,$3,$4,$5,$6,$7,$8,$9,$2,$3,0*
0 Add four circle primitives for the rounded corners*
1,1,$1+$1,$2,$3*
1,1,$1+$1,$4,$5*
1,1,$1+$1,$6,$7*
1,1,$1+$1,$8,$9*
0 Add four rect primitives between the rounded corners*
20,1,$1+$1,$2,$3,$4,$5,0*
20,1,$1+$1,$4,$5,$6,$7,0*
20,1,$1+$1,$6,$7,$8,$9,0*
20,1,$1+$1,$8,$9,$2,$3,0*%
G04 Aperture macros list end*
%ADD10C,5.600000*%
%ADD11RoundRect,0.444500X3.784600X-0.800100X3.784600X0.800100X-3.784600X0.800100X-3.784600X-0.800100X0*%
%ADD12R,1.980000X1.980000*%
%ADD13C,1.980000*%
%ADD14C,1.524000*%
%ADD15C,3.810000*%
%ADD16C,2.000000*%
%ADD17RoundRect,0.250000X0.600000X0.600000X-0.600000X0.600000X-0.600000X-0.600000X0.600000X-0.600000X0*%
%ADD18C,1.700000*%
%ADD19C,1.600000*%
%ADD20O,1.600000X1.600000*%
%ADD21R,1.200000X1.200000*%
%ADD22C,1.200000*%
G04 APERTURE END LIST*
D10*
%TO.C,H102*%
X99060000Y-149860000D03*
%TD*%
D11*
%TO.C,P101*%
X27559000Y-136906000D03*
X27559000Y-132943600D03*
X27559000Y-128981200D03*
X27559000Y-125018800D03*
X27559000Y-121056400D03*
X27559000Y-117094000D03*
X27559000Y-113131600D03*
X27559000Y-109169200D03*
X27559000Y-105206800D03*
X27559000Y-101244400D03*
X27559000Y-97282000D03*
X27559000Y-93319600D03*
X27559000Y-89357200D03*
X27559000Y-85394800D03*
X27559000Y-81432400D03*
X27559000Y-77470000D03*
X27559000Y-73507600D03*
X27559000Y-69545200D03*
X27559000Y-65582800D03*
X27559000Y-61620400D03*
X27559000Y-57658000D03*
X27559000Y-53695600D03*
%TD*%
D10*
%TO.C,H105*%
X198120000Y-40640000D03*
%TD*%
%TO.C,H101*%
X99060000Y-40640000D03*
%TD*%
D12*
%TO.C,F101*%
X68326000Y-72644000D03*
D13*
X68326000Y-94484000D03*
%TD*%
D14*
%TO.C,P102*%
X139700000Y-137034100D03*
X134620000Y-137034100D03*
X139700000Y-133074100D03*
X134620000Y-133074100D03*
X139700000Y-129114100D03*
X134620000Y-129114100D03*
X139700000Y-125154100D03*
X134620000Y-125154100D03*
X139700000Y-121194100D03*
X134620000Y-121194100D03*
X139700000Y-117234100D03*
X134620000Y-117234100D03*
X139700000Y-113274100D03*
X134620000Y-113274100D03*
X139700000Y-109314100D03*
X134620000Y-109314100D03*
X139700000Y-105354100D03*
X134620000Y-105354100D03*
X139700000Y-101394100D03*
X134620000Y-101394100D03*
X139700000Y-97434100D03*
X134620000Y-97434100D03*
X139700000Y-93474100D03*
X134620000Y-93474100D03*
X139700000Y-89514100D03*
X134620000Y-89514100D03*
X139700000Y-85554100D03*
X134620000Y-85554100D03*
X139700000Y-81594100D03*
X134620000Y-81594100D03*
X139700000Y-77634100D03*
X134620000Y-77634100D03*
X139700000Y-73674100D03*
X134620000Y-73674100D03*
X139700000Y-69714100D03*
X134620000Y-69714100D03*
X139700000Y-65754100D03*
X134620000Y-65754100D03*
X139700000Y-61794100D03*
X134620000Y-61794100D03*
X139700000Y-57834100D03*
X134620000Y-57834100D03*
X139700000Y-53874100D03*
X134620000Y-53874100D03*
D15*
X137160000Y-44297600D03*
X137096500Y-146578600D03*
%TD*%
D10*
%TO.C,H106*%
X198120000Y-149860000D03*
%TD*%
%TO.C,H103*%
X149860000Y-40640000D03*
%TD*%
D14*
%TO.C,P104*%
X190500000Y-137059500D03*
X185420000Y-137059500D03*
X190500000Y-133099500D03*
X185420000Y-133099500D03*
X190500000Y-129139500D03*
X185420000Y-129139500D03*
X190500000Y-125179500D03*
X185420000Y-125179500D03*
X190500000Y-121219500D03*
X185420000Y-121219500D03*
X190500000Y-117259500D03*
X185420000Y-117259500D03*
X190500000Y-113299500D03*
X185420000Y-113299500D03*
X190500000Y-109339500D03*
X185420000Y-109339500D03*
X190500000Y-105379500D03*
X185420000Y-105379500D03*
X190500000Y-101419500D03*
X185420000Y-101419500D03*
X190500000Y-97459500D03*
X185420000Y-97459500D03*
X190500000Y-93499500D03*
X185420000Y-93499500D03*
X190500000Y-89539500D03*
X185420000Y-89539500D03*
X190500000Y-85579500D03*
X185420000Y-85579500D03*
X190500000Y-81619500D03*
X185420000Y-81619500D03*
X190500000Y-77659500D03*
X185420000Y-77659500D03*
X190500000Y-73699500D03*
X185420000Y-73699500D03*
X190500000Y-69739500D03*
X185420000Y-69739500D03*
X190500000Y-65779500D03*
X185420000Y-65779500D03*
X190500000Y-61819500D03*
X185420000Y-61819500D03*
X190500000Y-57859500D03*
X185420000Y-57859500D03*
X190500000Y-53899500D03*
X185420000Y-53899500D03*
D15*
X187896500Y-146604000D03*
X187960000Y-44323000D03*
%TD*%
D16*
%TO.C,SW101*%
X78160000Y-113180000D03*
X78160000Y-106680000D03*
X73660000Y-113180000D03*
X73660000Y-106680000D03*
%TD*%
D14*
%TO.C,P103*%
X165100000Y-137059500D03*
X160020000Y-137059500D03*
X165100000Y-133099500D03*
X160020000Y-133099500D03*
X165100000Y-129139500D03*
X160020000Y-129139500D03*
X165100000Y-125179500D03*
X160020000Y-125179500D03*
X165100000Y-121219500D03*
X160020000Y-121219500D03*
X165100000Y-117259500D03*
X160020000Y-117259500D03*
X165100000Y-113299500D03*
X160020000Y-113299500D03*
X165100000Y-109339500D03*
X160020000Y-109339500D03*
X165100000Y-105379500D03*
X160020000Y-105379500D03*
X165100000Y-101419500D03*
X160020000Y-101419500D03*
X165100000Y-97459500D03*
X160020000Y-97459500D03*
X165100000Y-93499500D03*
X160020000Y-93499500D03*
X165100000Y-89539500D03*
X160020000Y-89539500D03*
X165100000Y-85579500D03*
X160020000Y-85579500D03*
X165100000Y-81619500D03*
X160020000Y-81619500D03*
X165100000Y-77659500D03*
X160020000Y-77659500D03*
X165100000Y-73699500D03*
X160020000Y-73699500D03*
X165100000Y-69739500D03*
X160020000Y-69739500D03*
X165100000Y-65779500D03*
X160020000Y-65779500D03*
X165100000Y-61819500D03*
X160020000Y-61819500D03*
X165100000Y-57859500D03*
X160020000Y-57859500D03*
X165100000Y-53899500D03*
X160020000Y-53899500D03*
D15*
X162560000Y-44323000D03*
X162496500Y-146604000D03*
%TD*%
D17*
%TO.C,J101*%
X53771800Y-125399800D03*
D18*
X51231800Y-125399800D03*
X53771800Y-122859800D03*
X51231800Y-122859800D03*
X53771800Y-120319800D03*
X51231800Y-120319800D03*
X53771800Y-117779800D03*
X51231800Y-117779800D03*
X53771800Y-115239800D03*
X51231800Y-115239800D03*
X53771800Y-112699800D03*
X51231800Y-112699800D03*
X53771800Y-110159800D03*
X51231800Y-110159800D03*
X53771800Y-107619800D03*
X51231800Y-107619800D03*
X53771800Y-105079800D03*
X51231800Y-105079800D03*
X53771800Y-102539800D03*
X51231800Y-102539800D03*
X53771800Y-99999800D03*
X51231800Y-99999800D03*
X53771800Y-97459800D03*
X51231800Y-97459800D03*
X53771800Y-94919800D03*
X51231800Y-94919800D03*
X53771800Y-92379800D03*
X51231800Y-92379800D03*
X53771800Y-89839800D03*
X51231800Y-89839800D03*
X53771800Y-87299800D03*
X51231800Y-87299800D03*
X53771800Y-84759800D03*
X51231800Y-84759800D03*
X53771800Y-82219800D03*
X51231800Y-82219800D03*
X53771800Y-79679800D03*
X51231800Y-79679800D03*
X53771800Y-77139800D03*
X51231800Y-77139800D03*
X53771800Y-74599800D03*
X51231800Y-74599800D03*
X53771800Y-72059800D03*
X51231800Y-72059800D03*
X53771800Y-69519800D03*
X51231800Y-69519800D03*
X53771800Y-66979800D03*
X51231800Y-66979800D03*
X53771800Y-64439800D03*
X51231800Y-64439800D03*
%TD*%
D10*
%TO.C,H104*%
X149860000Y-149860000D03*
%TD*%
D19*
%TO.C,R101*%
X60960000Y-106680000D03*
D20*
X68580000Y-106680000D03*
%TD*%
D21*
%TO.C,C101*%
X63905000Y-113030000D03*
D22*
X65405000Y-113030000D03*
%TD*%
D17*
%TO.C,J102*%
X97637600Y-125806200D03*
D18*
X95097600Y-125806200D03*
X97637600Y-123266200D03*
X95097600Y-123266200D03*
X97637600Y-120726200D03*
X95097600Y-120726200D03*
X97637600Y-118186200D03*
X95097600Y-118186200D03*
X97637600Y-115646200D03*
X95097600Y-115646200D03*
X97637600Y-113106200D03*
X95097600Y-113106200D03*
X97637600Y-110566200D03*
X95097600Y-110566200D03*
X97637600Y-108026200D03*
X95097600Y-108026200D03*
X97637600Y-105486200D03*
X95097600Y-105486200D03*
X97637600Y-102946200D03*
X95097600Y-102946200D03*
X97637600Y-100406200D03*
X95097600Y-100406200D03*
X97637600Y-97866200D03*
X95097600Y-97866200D03*
X97637600Y-95326200D03*
X95097600Y-95326200D03*
X97637600Y-92786200D03*
X95097600Y-92786200D03*
X97637600Y-90246200D03*
X95097600Y-90246200D03*
X97637600Y-87706200D03*
X95097600Y-87706200D03*
X97637600Y-85166200D03*
X95097600Y-85166200D03*
X97637600Y-82626200D03*
X95097600Y-82626200D03*
X97637600Y-80086200D03*
X95097600Y-80086200D03*
X97637600Y-77546200D03*
X95097600Y-77546200D03*
X97637600Y-75006200D03*
X95097600Y-75006200D03*
X97637600Y-72466200D03*
X95097600Y-72466200D03*
X97637600Y-69926200D03*
X95097600Y-69926200D03*
X97637600Y-67386200D03*
X95097600Y-67386200D03*
X97637600Y-64846200D03*
X95097600Y-64846200D03*
%TD*%
M02*
