M48
; DRILL file {KiCad (6.0.4-0)} date Sunday, July 10, 2022 at 02:02:54 PM
; FORMAT={2:4/ absolute / inch / suppress leading zeros}
; #@! TF.CreationDate,2022-07-10T14:02:54-04:00
; #@! TF.GenerationSoftware,Kicad,Pcbnew,(6.0.4-0)
; #@! TF.FileFunction,Plated,1,2,PTH
FMAT,2
INCH,TZ
; #@! TA.AperFunction,Plated,PTH,ViaDrill
T1C0.0157
; #@! TA.AperFunction,Plated,PTH,ComponentDrill
T2C0.0236
; #@! TA.AperFunction,Plated,PTH,ComponentDrill
T3C0.0300
; #@! TA.AperFunction,Plated,PTH,ComponentDrill
T4C0.0315
; #@! TA.AperFunction,Plated,PTH,ComponentDrill
T5C0.0394
; #@! TA.AperFunction,Plated,PTH,ComponentDrill
T6C0.0433
; #@! TA.AperFunction,Plated,PTH,ComponentDrill
T7C0.0520
; #@! TA.AperFunction,Plated,PTH,ComponentDrill
T8C0.1200
; #@! TA.AperFunction,Plated,PTH,ComponentDrill
T9C0.1260
%
G90
G05
T1
X12918Y-21140
T2
X25159Y-44500
X25750Y-44500
T3
X53000Y-21210
X53000Y-22769
X53000Y-24328
X53000Y-25887
X53000Y-27446
X53000Y-29006
X53000Y-30565
X53000Y-32124
X53000Y-33683
X53000Y-35242
X53000Y-36801
X53000Y-38360
X53000Y-39919
X53000Y-41478
X53000Y-43037
X53000Y-44596
X53000Y-46155
X53000Y-47714
X53000Y-49273
X53000Y-50832
X53000Y-52391
X53000Y-53950
X55000Y-21210
X55000Y-22769
X55000Y-24328
X55000Y-25887
X55000Y-27446
X55000Y-29006
X55000Y-30565
X55000Y-32124
X55000Y-33683
X55000Y-35242
X55000Y-36801
X55000Y-38360
X55000Y-39919
X55000Y-41478
X55000Y-43037
X55000Y-44596
X55000Y-46155
X55000Y-47714
X55000Y-49273
X55000Y-50832
X55000Y-52391
X55000Y-53950
X63000Y-21220
X63000Y-22779
X63000Y-24338
X63000Y-25897
X63000Y-27456
X63000Y-29016
X63000Y-30575
X63000Y-32134
X63000Y-33693
X63000Y-35252
X63000Y-36811
X63000Y-38370
X63000Y-39929
X63000Y-41488
X63000Y-43047
X63000Y-44606
X63000Y-46165
X63000Y-47724
X63000Y-49283
X63000Y-50842
X63000Y-52401
X63000Y-53960
X65000Y-21220
X65000Y-22779
X65000Y-24338
X65000Y-25897
X65000Y-27456
X65000Y-29016
X65000Y-30575
X65000Y-32134
X65000Y-33693
X65000Y-35252
X65000Y-36811
X65000Y-38370
X65000Y-39929
X65000Y-41488
X65000Y-43047
X65000Y-44606
X65000Y-46165
X65000Y-47724
X65000Y-49283
X65000Y-50842
X65000Y-52401
X65000Y-53960
X73000Y-21220
X73000Y-22779
X73000Y-24338
X73000Y-25897
X73000Y-27456
X73000Y-29016
X73000Y-30575
X73000Y-32134
X73000Y-33693
X73000Y-35252
X73000Y-36811
X73000Y-38370
X73000Y-39929
X73000Y-41488
X73000Y-43047
X73000Y-44606
X73000Y-46165
X73000Y-47724
X73000Y-49283
X73000Y-50842
X73000Y-52401
X73000Y-53960
X75000Y-21220
X75000Y-22779
X75000Y-24338
X75000Y-25897
X75000Y-27456
X75000Y-29016
X75000Y-30575
X75000Y-32134
X75000Y-33693
X75000Y-35252
X75000Y-36811
X75000Y-38370
X75000Y-39929
X75000Y-41488
X75000Y-43047
X75000Y-44606
X75000Y-46165
X75000Y-47724
X75000Y-49283
X75000Y-50842
X75000Y-52401
X75000Y-53960
T4
X24000Y-42000
X27000Y-42000
T5
X20170Y-25370
X20170Y-26370
X20170Y-27370
X20170Y-28370
X20170Y-29370
X20170Y-30370
X20170Y-31370
X20170Y-32370
X20170Y-33370
X20170Y-34370
X20170Y-35370
X20170Y-36370
X20170Y-37370
X20170Y-38370
X20170Y-39370
X20170Y-40370
X20170Y-41370
X20170Y-42370
X20170Y-43370
X20170Y-44370
X20170Y-45370
X20170Y-46370
X20170Y-47370
X20170Y-48370
X20170Y-49370
X21170Y-25370
X21170Y-26370
X21170Y-27370
X21170Y-28370
X21170Y-29370
X21170Y-30370
X21170Y-31370
X21170Y-32370
X21170Y-33370
X21170Y-34370
X21170Y-35370
X21170Y-36370
X21170Y-37370
X21170Y-38370
X21170Y-39370
X21170Y-40370
X21170Y-41370
X21170Y-42370
X21170Y-43370
X21170Y-44370
X21170Y-45370
X21170Y-46370
X21170Y-47370
X21170Y-48370
X21170Y-49370
X37440Y-25530
X37440Y-26530
X37440Y-27530
X37440Y-28530
X37440Y-29530
X37440Y-30530
X37440Y-31530
X37440Y-32530
X37440Y-33530
X37440Y-34530
X37440Y-35530
X37440Y-36530
X37440Y-37530
X37440Y-38530
X37440Y-39530
X37440Y-40530
X37440Y-41530
X37440Y-42530
X37440Y-43530
X37440Y-44530
X37440Y-45530
X37440Y-46530
X37440Y-47530
X37440Y-48530
X37440Y-49530
X38440Y-25530
X38440Y-26530
X38440Y-27530
X38440Y-28530
X38440Y-29530
X38440Y-30530
X38440Y-31530
X38440Y-32530
X38440Y-33530
X38440Y-34530
X38440Y-35530
X38440Y-36530
X38440Y-37530
X38440Y-38530
X38440Y-39530
X38440Y-40530
X38440Y-41530
X38440Y-42530
X38440Y-43530
X38440Y-44530
X38440Y-45530
X38440Y-46530
X38440Y-47530
X38440Y-48530
X38440Y-49530
T6
X29000Y-42000
X29000Y-44559
X30772Y-42000
X30772Y-44559
T7
X26900Y-28600
X26900Y-37198
T8
X53975Y-57708
X54000Y-17440
X63975Y-57718
X64000Y-17450
X73975Y-57718
X74000Y-17450
T9
X39000Y-16000
X39000Y-59000
X59000Y-16000
X59000Y-59000
X78000Y-16000
X78000Y-59000
T0
M30
