%TF.GenerationSoftware,KiCad,Pcbnew,(6.0.4-0)*%
%TF.CreationDate,2022-07-10T14:03:27-04:00*%
%TF.ProjectId,VIC1005Reloaded-1.0-001,56494331-3030-4355-9265-6c6f61646564,1.0-001*%
%TF.SameCoordinates,Original*%
%TF.FileFunction,Legend,Top*%
%TF.FilePolarity,Positive*%
%FSLAX46Y46*%
G04 Gerber Fmt 4.6, Leading zero omitted, Abs format (unit mm)*
G04 Created by KiCad (PCBNEW (6.0.4-0)) date 2022-07-10 14:03:27*
%MOMM*%
%LPD*%
G01*
G04 APERTURE LIST*
%ADD10C,0.100000*%
%ADD11C,0.150000*%
%ADD12C,0.300000*%
%ADD13C,0.101600*%
%ADD14C,0.127000*%
%ADD15C,0.120000*%
%ADD16C,3.810000*%
G04 APERTURE END LIST*
D10*
G36*
X139700000Y-154305000D02*
G01*
X132080000Y-154305000D01*
X132080000Y-151765000D01*
X139700000Y-151765000D01*
X139700000Y-154305000D01*
G37*
X139700000Y-154305000D02*
X132080000Y-154305000D01*
X132080000Y-151765000D01*
X139700000Y-151765000D01*
X139700000Y-154305000D01*
D11*
X197037142Y-86826666D02*
X197084761Y-86874285D01*
X197132380Y-87017142D01*
X197132380Y-87112380D01*
X197084761Y-87255238D01*
X196989523Y-87350476D01*
X196894285Y-87398095D01*
X196703809Y-87445714D01*
X196560952Y-87445714D01*
X196370476Y-87398095D01*
X196275238Y-87350476D01*
X196180000Y-87255238D01*
X196132380Y-87112380D01*
X196132380Y-87017142D01*
X196180000Y-86874285D01*
X196227619Y-86826666D01*
X197132380Y-86255238D02*
X197084761Y-86350476D01*
X197037142Y-86398095D01*
X196941904Y-86445714D01*
X196656190Y-86445714D01*
X196560952Y-86398095D01*
X196513333Y-86350476D01*
X196465714Y-86255238D01*
X196465714Y-86112380D01*
X196513333Y-86017142D01*
X196560952Y-85969523D01*
X196656190Y-85921904D01*
X196941904Y-85921904D01*
X197037142Y-85969523D01*
X197084761Y-86017142D01*
X197132380Y-86112380D01*
X197132380Y-86255238D01*
X196465714Y-85493333D02*
X197465714Y-85493333D01*
X196513333Y-85493333D02*
X196465714Y-85398095D01*
X196465714Y-85207619D01*
X196513333Y-85112380D01*
X196560952Y-85064761D01*
X196656190Y-85017142D01*
X196941904Y-85017142D01*
X197037142Y-85064761D01*
X197084761Y-85112380D01*
X197132380Y-85207619D01*
X197132380Y-85398095D01*
X197084761Y-85493333D01*
X196465714Y-84683809D02*
X197132380Y-84445714D01*
X196465714Y-84207619D02*
X197132380Y-84445714D01*
X197370476Y-84540952D01*
X197418095Y-84588571D01*
X197465714Y-84683809D01*
X197132380Y-83826666D02*
X196465714Y-83826666D01*
X196656190Y-83826666D02*
X196560952Y-83779047D01*
X196513333Y-83731428D01*
X196465714Y-83636190D01*
X196465714Y-83540952D01*
X197132380Y-83207619D02*
X196465714Y-83207619D01*
X196132380Y-83207619D02*
X196180000Y-83255238D01*
X196227619Y-83207619D01*
X196180000Y-83160000D01*
X196132380Y-83207619D01*
X196227619Y-83207619D01*
X196465714Y-82302857D02*
X197275238Y-82302857D01*
X197370476Y-82350476D01*
X197418095Y-82398095D01*
X197465714Y-82493333D01*
X197465714Y-82636190D01*
X197418095Y-82731428D01*
X197084761Y-82302857D02*
X197132380Y-82398095D01*
X197132380Y-82588571D01*
X197084761Y-82683809D01*
X197037142Y-82731428D01*
X196941904Y-82779047D01*
X196656190Y-82779047D01*
X196560952Y-82731428D01*
X196513333Y-82683809D01*
X196465714Y-82588571D01*
X196465714Y-82398095D01*
X196513333Y-82302857D01*
X197132380Y-81826666D02*
X196132380Y-81826666D01*
X197132380Y-81398095D02*
X196608571Y-81398095D01*
X196513333Y-81445714D01*
X196465714Y-81540952D01*
X196465714Y-81683809D01*
X196513333Y-81779047D01*
X196560952Y-81826666D01*
X196465714Y-81064761D02*
X196465714Y-80683809D01*
X196132380Y-80921904D02*
X196989523Y-80921904D01*
X197084761Y-80874285D01*
X197132380Y-80779047D01*
X197132380Y-80683809D01*
X197513333Y-79302857D02*
X197465714Y-79350476D01*
X197322857Y-79445714D01*
X197227619Y-79493333D01*
X197084761Y-79540952D01*
X196846666Y-79588571D01*
X196656190Y-79588571D01*
X196418095Y-79540952D01*
X196275238Y-79493333D01*
X196180000Y-79445714D01*
X196037142Y-79350476D01*
X195989523Y-79302857D01*
X197084761Y-78493333D02*
X197132380Y-78588571D01*
X197132380Y-78779047D01*
X197084761Y-78874285D01*
X197037142Y-78921904D01*
X196941904Y-78969523D01*
X196656190Y-78969523D01*
X196560952Y-78921904D01*
X196513333Y-78874285D01*
X196465714Y-78779047D01*
X196465714Y-78588571D01*
X196513333Y-78493333D01*
X197513333Y-78160000D02*
X197465714Y-78112380D01*
X197322857Y-78017142D01*
X197227619Y-77969523D01*
X197084761Y-77921904D01*
X196846666Y-77874285D01*
X196656190Y-77874285D01*
X196418095Y-77921904D01*
X196275238Y-77969523D01*
X196180000Y-78017142D01*
X196037142Y-78112380D01*
X195989523Y-78160000D01*
X196227619Y-76683809D02*
X196180000Y-76636190D01*
X196132380Y-76540952D01*
X196132380Y-76302857D01*
X196180000Y-76207619D01*
X196227619Y-76160000D01*
X196322857Y-76112380D01*
X196418095Y-76112380D01*
X196560952Y-76160000D01*
X197132380Y-76731428D01*
X197132380Y-76112380D01*
X196132380Y-75493333D02*
X196132380Y-75398095D01*
X196180000Y-75302857D01*
X196227619Y-75255238D01*
X196322857Y-75207619D01*
X196513333Y-75160000D01*
X196751428Y-75160000D01*
X196941904Y-75207619D01*
X197037142Y-75255238D01*
X197084761Y-75302857D01*
X197132380Y-75398095D01*
X197132380Y-75493333D01*
X197084761Y-75588571D01*
X197037142Y-75636190D01*
X196941904Y-75683809D01*
X196751428Y-75731428D01*
X196513333Y-75731428D01*
X196322857Y-75683809D01*
X196227619Y-75636190D01*
X196180000Y-75588571D01*
X196132380Y-75493333D01*
X196227619Y-74779047D02*
X196180000Y-74731428D01*
X196132380Y-74636190D01*
X196132380Y-74398095D01*
X196180000Y-74302857D01*
X196227619Y-74255238D01*
X196322857Y-74207619D01*
X196418095Y-74207619D01*
X196560952Y-74255238D01*
X197132380Y-74826666D01*
X197132380Y-74207619D01*
X196227619Y-73826666D02*
X196180000Y-73779047D01*
X196132380Y-73683809D01*
X196132380Y-73445714D01*
X196180000Y-73350476D01*
X196227619Y-73302857D01*
X196322857Y-73255238D01*
X196418095Y-73255238D01*
X196560952Y-73302857D01*
X197132380Y-73874285D01*
X197132380Y-73255238D01*
X197132380Y-71493333D02*
X196656190Y-71826666D01*
X197132380Y-72064761D02*
X196132380Y-72064761D01*
X196132380Y-71683809D01*
X196180000Y-71588571D01*
X196227619Y-71540952D01*
X196322857Y-71493333D01*
X196465714Y-71493333D01*
X196560952Y-71540952D01*
X196608571Y-71588571D01*
X196656190Y-71683809D01*
X196656190Y-72064761D01*
X197132380Y-71064761D02*
X196465714Y-71064761D01*
X196132380Y-71064761D02*
X196180000Y-71112380D01*
X196227619Y-71064761D01*
X196180000Y-71017142D01*
X196132380Y-71064761D01*
X196227619Y-71064761D01*
X197084761Y-70160000D02*
X197132380Y-70255238D01*
X197132380Y-70445714D01*
X197084761Y-70540952D01*
X197037142Y-70588571D01*
X196941904Y-70636190D01*
X196656190Y-70636190D01*
X196560952Y-70588571D01*
X196513333Y-70540952D01*
X196465714Y-70445714D01*
X196465714Y-70255238D01*
X196513333Y-70160000D01*
X197132380Y-69731428D02*
X196132380Y-69731428D01*
X197132380Y-69302857D02*
X196608571Y-69302857D01*
X196513333Y-69350476D01*
X196465714Y-69445714D01*
X196465714Y-69588571D01*
X196513333Y-69683809D01*
X196560952Y-69731428D01*
X197132380Y-68398095D02*
X196608571Y-68398095D01*
X196513333Y-68445714D01*
X196465714Y-68540952D01*
X196465714Y-68731428D01*
X196513333Y-68826666D01*
X197084761Y-68398095D02*
X197132380Y-68493333D01*
X197132380Y-68731428D01*
X197084761Y-68826666D01*
X196989523Y-68874285D01*
X196894285Y-68874285D01*
X196799047Y-68826666D01*
X196751428Y-68731428D01*
X196751428Y-68493333D01*
X196703809Y-68398095D01*
X197132380Y-67921904D02*
X196465714Y-67921904D01*
X196656190Y-67921904D02*
X196560952Y-67874285D01*
X196513333Y-67826666D01*
X196465714Y-67731428D01*
X196465714Y-67636190D01*
X197132380Y-66874285D02*
X196132380Y-66874285D01*
X197084761Y-66874285D02*
X197132380Y-66969523D01*
X197132380Y-67160000D01*
X197084761Y-67255238D01*
X197037142Y-67302857D01*
X196941904Y-67350476D01*
X196656190Y-67350476D01*
X196560952Y-67302857D01*
X196513333Y-67255238D01*
X196465714Y-67160000D01*
X196465714Y-66969523D01*
X196513333Y-66874285D01*
X196846666Y-65683809D02*
X196846666Y-65207619D01*
X197132380Y-65779047D02*
X196132380Y-65445714D01*
X197132380Y-65112380D01*
X197037142Y-64779047D02*
X197084761Y-64731428D01*
X197132380Y-64779047D01*
X197084761Y-64826666D01*
X197037142Y-64779047D01*
X197132380Y-64779047D01*
X197037142Y-62969523D02*
X197084761Y-63017142D01*
X197132380Y-63160000D01*
X197132380Y-63255238D01*
X197084761Y-63398095D01*
X196989523Y-63493333D01*
X196894285Y-63540952D01*
X196703809Y-63588571D01*
X196560952Y-63588571D01*
X196370476Y-63540952D01*
X196275238Y-63493333D01*
X196180000Y-63398095D01*
X196132380Y-63255238D01*
X196132380Y-63160000D01*
X196180000Y-63017142D01*
X196227619Y-62969523D01*
X197132380Y-62540952D02*
X196465714Y-62540952D01*
X196132380Y-62540952D02*
X196180000Y-62588571D01*
X196227619Y-62540952D01*
X196180000Y-62493333D01*
X196132380Y-62540952D01*
X196227619Y-62540952D01*
X196465714Y-62064761D02*
X197132380Y-62064761D01*
X196560952Y-62064761D02*
X196513333Y-62017142D01*
X196465714Y-61921904D01*
X196465714Y-61779047D01*
X196513333Y-61683809D01*
X196608571Y-61636190D01*
X197132380Y-61636190D01*
X197132380Y-61160000D02*
X196465714Y-61160000D01*
X196132380Y-61160000D02*
X196180000Y-61207619D01*
X196227619Y-61160000D01*
X196180000Y-61112380D01*
X196132380Y-61160000D01*
X196227619Y-61160000D01*
X197037142Y-60683809D02*
X197084761Y-60636190D01*
X197132380Y-60683809D01*
X197084761Y-60731428D01*
X197037142Y-60683809D01*
X197132380Y-60683809D01*
X198456666Y-93469523D02*
X198456666Y-92993333D01*
X198742380Y-93564761D02*
X197742380Y-93231428D01*
X198742380Y-92898095D01*
X198742380Y-92421904D02*
X198694761Y-92517142D01*
X198599523Y-92564761D01*
X197742380Y-92564761D01*
X198742380Y-91898095D02*
X198694761Y-91993333D01*
X198599523Y-92040952D01*
X197742380Y-92040952D01*
X198742380Y-90183809D02*
X198266190Y-90517142D01*
X198742380Y-90755238D02*
X197742380Y-90755238D01*
X197742380Y-90374285D01*
X197790000Y-90279047D01*
X197837619Y-90231428D01*
X197932857Y-90183809D01*
X198075714Y-90183809D01*
X198170952Y-90231428D01*
X198218571Y-90279047D01*
X198266190Y-90374285D01*
X198266190Y-90755238D01*
X198742380Y-89755238D02*
X198075714Y-89755238D01*
X197742380Y-89755238D02*
X197790000Y-89802857D01*
X197837619Y-89755238D01*
X197790000Y-89707619D01*
X197742380Y-89755238D01*
X197837619Y-89755238D01*
X198075714Y-88850476D02*
X198885238Y-88850476D01*
X198980476Y-88898095D01*
X199028095Y-88945714D01*
X199075714Y-89040952D01*
X199075714Y-89183809D01*
X199028095Y-89279047D01*
X198694761Y-88850476D02*
X198742380Y-88945714D01*
X198742380Y-89136190D01*
X198694761Y-89231428D01*
X198647142Y-89279047D01*
X198551904Y-89326666D01*
X198266190Y-89326666D01*
X198170952Y-89279047D01*
X198123333Y-89231428D01*
X198075714Y-89136190D01*
X198075714Y-88945714D01*
X198123333Y-88850476D01*
X198742380Y-88374285D02*
X197742380Y-88374285D01*
X198742380Y-87945714D02*
X198218571Y-87945714D01*
X198123333Y-87993333D01*
X198075714Y-88088571D01*
X198075714Y-88231428D01*
X198123333Y-88326666D01*
X198170952Y-88374285D01*
X198075714Y-87612380D02*
X198075714Y-87231428D01*
X197742380Y-87469523D02*
X198599523Y-87469523D01*
X198694761Y-87421904D01*
X198742380Y-87326666D01*
X198742380Y-87231428D01*
X198694761Y-86945714D02*
X198742380Y-86850476D01*
X198742380Y-86660000D01*
X198694761Y-86564761D01*
X198599523Y-86517142D01*
X198551904Y-86517142D01*
X198456666Y-86564761D01*
X198409047Y-86660000D01*
X198409047Y-86802857D01*
X198361428Y-86898095D01*
X198266190Y-86945714D01*
X198218571Y-86945714D01*
X198123333Y-86898095D01*
X198075714Y-86802857D01*
X198075714Y-86660000D01*
X198123333Y-86564761D01*
X198742380Y-84755238D02*
X198266190Y-85088571D01*
X198742380Y-85326666D02*
X197742380Y-85326666D01*
X197742380Y-84945714D01*
X197790000Y-84850476D01*
X197837619Y-84802857D01*
X197932857Y-84755238D01*
X198075714Y-84755238D01*
X198170952Y-84802857D01*
X198218571Y-84850476D01*
X198266190Y-84945714D01*
X198266190Y-85326666D01*
X198694761Y-83945714D02*
X198742380Y-84040952D01*
X198742380Y-84231428D01*
X198694761Y-84326666D01*
X198599523Y-84374285D01*
X198218571Y-84374285D01*
X198123333Y-84326666D01*
X198075714Y-84231428D01*
X198075714Y-84040952D01*
X198123333Y-83945714D01*
X198218571Y-83898095D01*
X198313809Y-83898095D01*
X198409047Y-84374285D01*
X198694761Y-83517142D02*
X198742380Y-83421904D01*
X198742380Y-83231428D01*
X198694761Y-83136190D01*
X198599523Y-83088571D01*
X198551904Y-83088571D01*
X198456666Y-83136190D01*
X198409047Y-83231428D01*
X198409047Y-83374285D01*
X198361428Y-83469523D01*
X198266190Y-83517142D01*
X198218571Y-83517142D01*
X198123333Y-83469523D01*
X198075714Y-83374285D01*
X198075714Y-83231428D01*
X198123333Y-83136190D01*
X198694761Y-82279047D02*
X198742380Y-82374285D01*
X198742380Y-82564761D01*
X198694761Y-82660000D01*
X198599523Y-82707619D01*
X198218571Y-82707619D01*
X198123333Y-82660000D01*
X198075714Y-82564761D01*
X198075714Y-82374285D01*
X198123333Y-82279047D01*
X198218571Y-82231428D01*
X198313809Y-82231428D01*
X198409047Y-82707619D01*
X198742380Y-81802857D02*
X198075714Y-81802857D01*
X198266190Y-81802857D02*
X198170952Y-81755238D01*
X198123333Y-81707619D01*
X198075714Y-81612380D01*
X198075714Y-81517142D01*
X198075714Y-81279047D02*
X198742380Y-81040952D01*
X198075714Y-80802857D01*
X198694761Y-80040952D02*
X198742380Y-80136190D01*
X198742380Y-80326666D01*
X198694761Y-80421904D01*
X198599523Y-80469523D01*
X198218571Y-80469523D01*
X198123333Y-80421904D01*
X198075714Y-80326666D01*
X198075714Y-80136190D01*
X198123333Y-80040952D01*
X198218571Y-79993333D01*
X198313809Y-79993333D01*
X198409047Y-80469523D01*
X198742380Y-79136190D02*
X197742380Y-79136190D01*
X198694761Y-79136190D02*
X198742380Y-79231428D01*
X198742380Y-79421904D01*
X198694761Y-79517142D01*
X198647142Y-79564761D01*
X198551904Y-79612380D01*
X198266190Y-79612380D01*
X198170952Y-79564761D01*
X198123333Y-79517142D01*
X198075714Y-79421904D01*
X198075714Y-79231428D01*
X198123333Y-79136190D01*
X198647142Y-78660000D02*
X198694761Y-78612380D01*
X198742380Y-78660000D01*
X198694761Y-78707619D01*
X198647142Y-78660000D01*
X198742380Y-78660000D01*
X198742380Y-76945714D02*
X198742380Y-77421904D01*
X197742380Y-77421904D01*
X198742380Y-76612380D02*
X198075714Y-76612380D01*
X197742380Y-76612380D02*
X197790000Y-76660000D01*
X197837619Y-76612380D01*
X197790000Y-76564761D01*
X197742380Y-76612380D01*
X197837619Y-76612380D01*
X198694761Y-75707619D02*
X198742380Y-75802857D01*
X198742380Y-75993333D01*
X198694761Y-76088571D01*
X198647142Y-76136190D01*
X198551904Y-76183809D01*
X198266190Y-76183809D01*
X198170952Y-76136190D01*
X198123333Y-76088571D01*
X198075714Y-75993333D01*
X198075714Y-75802857D01*
X198123333Y-75707619D01*
X198694761Y-74898095D02*
X198742380Y-74993333D01*
X198742380Y-75183809D01*
X198694761Y-75279047D01*
X198599523Y-75326666D01*
X198218571Y-75326666D01*
X198123333Y-75279047D01*
X198075714Y-75183809D01*
X198075714Y-74993333D01*
X198123333Y-74898095D01*
X198218571Y-74850476D01*
X198313809Y-74850476D01*
X198409047Y-75326666D01*
X198075714Y-74421904D02*
X198742380Y-74421904D01*
X198170952Y-74421904D02*
X198123333Y-74374285D01*
X198075714Y-74279047D01*
X198075714Y-74136190D01*
X198123333Y-74040952D01*
X198218571Y-73993333D01*
X198742380Y-73993333D01*
X198694761Y-73564761D02*
X198742380Y-73469523D01*
X198742380Y-73279047D01*
X198694761Y-73183809D01*
X198599523Y-73136190D01*
X198551904Y-73136190D01*
X198456666Y-73183809D01*
X198409047Y-73279047D01*
X198409047Y-73421904D01*
X198361428Y-73517142D01*
X198266190Y-73564761D01*
X198218571Y-73564761D01*
X198123333Y-73517142D01*
X198075714Y-73421904D01*
X198075714Y-73279047D01*
X198123333Y-73183809D01*
X198694761Y-72326666D02*
X198742380Y-72421904D01*
X198742380Y-72612380D01*
X198694761Y-72707619D01*
X198599523Y-72755238D01*
X198218571Y-72755238D01*
X198123333Y-72707619D01*
X198075714Y-72612380D01*
X198075714Y-72421904D01*
X198123333Y-72326666D01*
X198218571Y-72279047D01*
X198313809Y-72279047D01*
X198409047Y-72755238D01*
X198742380Y-71421904D02*
X197742380Y-71421904D01*
X198694761Y-71421904D02*
X198742380Y-71517142D01*
X198742380Y-71707619D01*
X198694761Y-71802857D01*
X198647142Y-71850476D01*
X198551904Y-71898095D01*
X198266190Y-71898095D01*
X198170952Y-71850476D01*
X198123333Y-71802857D01*
X198075714Y-71707619D01*
X198075714Y-71517142D01*
X198123333Y-71421904D01*
X198075714Y-70326666D02*
X198075714Y-69945714D01*
X198742380Y-70183809D02*
X197885238Y-70183809D01*
X197790000Y-70136190D01*
X197742380Y-70040952D01*
X197742380Y-69945714D01*
X198742380Y-69469523D02*
X198694761Y-69564761D01*
X198647142Y-69612380D01*
X198551904Y-69660000D01*
X198266190Y-69660000D01*
X198170952Y-69612380D01*
X198123333Y-69564761D01*
X198075714Y-69469523D01*
X198075714Y-69326666D01*
X198123333Y-69231428D01*
X198170952Y-69183809D01*
X198266190Y-69136190D01*
X198551904Y-69136190D01*
X198647142Y-69183809D01*
X198694761Y-69231428D01*
X198742380Y-69326666D01*
X198742380Y-69469523D01*
X198742380Y-68707619D02*
X198075714Y-68707619D01*
X198266190Y-68707619D02*
X198170952Y-68660000D01*
X198123333Y-68612380D01*
X198075714Y-68517142D01*
X198075714Y-68421904D01*
X198742380Y-67326666D02*
X197742380Y-67326666D01*
X198742380Y-66898095D02*
X198218571Y-66898095D01*
X198123333Y-66945714D01*
X198075714Y-67040952D01*
X198075714Y-67183809D01*
X198123333Y-67279047D01*
X198170952Y-67326666D01*
X198742380Y-66279047D02*
X198694761Y-66374285D01*
X198647142Y-66421904D01*
X198551904Y-66469523D01*
X198266190Y-66469523D01*
X198170952Y-66421904D01*
X198123333Y-66374285D01*
X198075714Y-66279047D01*
X198075714Y-66136190D01*
X198123333Y-66040952D01*
X198170952Y-65993333D01*
X198266190Y-65945714D01*
X198551904Y-65945714D01*
X198647142Y-65993333D01*
X198694761Y-66040952D01*
X198742380Y-66136190D01*
X198742380Y-66279047D01*
X198742380Y-65517142D02*
X197742380Y-65517142D01*
X198123333Y-65517142D02*
X198075714Y-65421904D01*
X198075714Y-65231428D01*
X198123333Y-65136190D01*
X198170952Y-65088571D01*
X198266190Y-65040952D01*
X198551904Y-65040952D01*
X198647142Y-65088571D01*
X198694761Y-65136190D01*
X198742380Y-65231428D01*
X198742380Y-65421904D01*
X198694761Y-65517142D01*
X198742380Y-64612380D02*
X197742380Y-64612380D01*
X198123333Y-64612380D02*
X198075714Y-64517142D01*
X198075714Y-64326666D01*
X198123333Y-64231428D01*
X198170952Y-64183809D01*
X198266190Y-64136190D01*
X198551904Y-64136190D01*
X198647142Y-64183809D01*
X198694761Y-64231428D01*
X198742380Y-64326666D01*
X198742380Y-64517142D01*
X198694761Y-64612380D01*
X198075714Y-63802857D02*
X198742380Y-63564761D01*
X198075714Y-63326666D02*
X198742380Y-63564761D01*
X198980476Y-63660000D01*
X199028095Y-63707619D01*
X199075714Y-63802857D01*
X198742380Y-62945714D02*
X198075714Y-62945714D01*
X197742380Y-62945714D02*
X197790000Y-62993333D01*
X197837619Y-62945714D01*
X197790000Y-62898095D01*
X197742380Y-62945714D01*
X197837619Y-62945714D01*
X198694761Y-62517142D02*
X198742380Y-62421904D01*
X198742380Y-62231428D01*
X198694761Y-62136190D01*
X198599523Y-62088571D01*
X198551904Y-62088571D01*
X198456666Y-62136190D01*
X198409047Y-62231428D01*
X198409047Y-62374285D01*
X198361428Y-62469523D01*
X198266190Y-62517142D01*
X198218571Y-62517142D01*
X198123333Y-62469523D01*
X198075714Y-62374285D01*
X198075714Y-62231428D01*
X198123333Y-62136190D01*
X198075714Y-61802857D02*
X198075714Y-61421904D01*
X197742380Y-61660000D02*
X198599523Y-61660000D01*
X198694761Y-61612380D01*
X198742380Y-61517142D01*
X198742380Y-61421904D01*
X198075714Y-59898095D02*
X198742380Y-59898095D01*
X198075714Y-60326666D02*
X198599523Y-60326666D01*
X198694761Y-60279047D01*
X198742380Y-60183809D01*
X198742380Y-60040952D01*
X198694761Y-59945714D01*
X198647142Y-59898095D01*
X198694761Y-59469523D02*
X198742380Y-59374285D01*
X198742380Y-59183809D01*
X198694761Y-59088571D01*
X198599523Y-59040952D01*
X198551904Y-59040952D01*
X198456666Y-59088571D01*
X198409047Y-59183809D01*
X198409047Y-59326666D01*
X198361428Y-59421904D01*
X198266190Y-59469523D01*
X198218571Y-59469523D01*
X198123333Y-59421904D01*
X198075714Y-59326666D01*
X198075714Y-59183809D01*
X198123333Y-59088571D01*
X198694761Y-58231428D02*
X198742380Y-58326666D01*
X198742380Y-58517142D01*
X198694761Y-58612380D01*
X198599523Y-58660000D01*
X198218571Y-58660000D01*
X198123333Y-58612380D01*
X198075714Y-58517142D01*
X198075714Y-58326666D01*
X198123333Y-58231428D01*
X198218571Y-58183809D01*
X198313809Y-58183809D01*
X198409047Y-58660000D01*
X198742380Y-56850476D02*
X198694761Y-56945714D01*
X198647142Y-56993333D01*
X198551904Y-57040952D01*
X198266190Y-57040952D01*
X198170952Y-56993333D01*
X198123333Y-56945714D01*
X198075714Y-56850476D01*
X198075714Y-56707619D01*
X198123333Y-56612380D01*
X198170952Y-56564761D01*
X198266190Y-56517142D01*
X198551904Y-56517142D01*
X198647142Y-56564761D01*
X198694761Y-56612380D01*
X198742380Y-56707619D01*
X198742380Y-56850476D01*
X198075714Y-56088571D02*
X198742380Y-56088571D01*
X198170952Y-56088571D02*
X198123333Y-56040952D01*
X198075714Y-55945714D01*
X198075714Y-55802857D01*
X198123333Y-55707619D01*
X198218571Y-55660000D01*
X198742380Y-55660000D01*
X198742380Y-55040952D02*
X198694761Y-55136190D01*
X198599523Y-55183809D01*
X197742380Y-55183809D01*
X198075714Y-54755238D02*
X198742380Y-54517142D01*
X198075714Y-54279047D02*
X198742380Y-54517142D01*
X198980476Y-54612380D01*
X199028095Y-54660000D01*
X199075714Y-54755238D01*
X198647142Y-53898095D02*
X198694761Y-53850476D01*
X198742380Y-53898095D01*
X198694761Y-53945714D01*
X198647142Y-53898095D01*
X198742380Y-53898095D01*
X81467142Y-86826666D02*
X81514761Y-86874285D01*
X81562380Y-87017142D01*
X81562380Y-87112380D01*
X81514761Y-87255238D01*
X81419523Y-87350476D01*
X81324285Y-87398095D01*
X81133809Y-87445714D01*
X80990952Y-87445714D01*
X80800476Y-87398095D01*
X80705238Y-87350476D01*
X80610000Y-87255238D01*
X80562380Y-87112380D01*
X80562380Y-87017142D01*
X80610000Y-86874285D01*
X80657619Y-86826666D01*
X81562380Y-86255238D02*
X81514761Y-86350476D01*
X81467142Y-86398095D01*
X81371904Y-86445714D01*
X81086190Y-86445714D01*
X80990952Y-86398095D01*
X80943333Y-86350476D01*
X80895714Y-86255238D01*
X80895714Y-86112380D01*
X80943333Y-86017142D01*
X80990952Y-85969523D01*
X81086190Y-85921904D01*
X81371904Y-85921904D01*
X81467142Y-85969523D01*
X81514761Y-86017142D01*
X81562380Y-86112380D01*
X81562380Y-86255238D01*
X80895714Y-85493333D02*
X81895714Y-85493333D01*
X80943333Y-85493333D02*
X80895714Y-85398095D01*
X80895714Y-85207619D01*
X80943333Y-85112380D01*
X80990952Y-85064761D01*
X81086190Y-85017142D01*
X81371904Y-85017142D01*
X81467142Y-85064761D01*
X81514761Y-85112380D01*
X81562380Y-85207619D01*
X81562380Y-85398095D01*
X81514761Y-85493333D01*
X80895714Y-84683809D02*
X81562380Y-84445714D01*
X80895714Y-84207619D02*
X81562380Y-84445714D01*
X81800476Y-84540952D01*
X81848095Y-84588571D01*
X81895714Y-84683809D01*
X81562380Y-83826666D02*
X80895714Y-83826666D01*
X81086190Y-83826666D02*
X80990952Y-83779047D01*
X80943333Y-83731428D01*
X80895714Y-83636190D01*
X80895714Y-83540952D01*
X81562380Y-83207619D02*
X80895714Y-83207619D01*
X80562380Y-83207619D02*
X80610000Y-83255238D01*
X80657619Y-83207619D01*
X80610000Y-83160000D01*
X80562380Y-83207619D01*
X80657619Y-83207619D01*
X80895714Y-82302857D02*
X81705238Y-82302857D01*
X81800476Y-82350476D01*
X81848095Y-82398095D01*
X81895714Y-82493333D01*
X81895714Y-82636190D01*
X81848095Y-82731428D01*
X81514761Y-82302857D02*
X81562380Y-82398095D01*
X81562380Y-82588571D01*
X81514761Y-82683809D01*
X81467142Y-82731428D01*
X81371904Y-82779047D01*
X81086190Y-82779047D01*
X80990952Y-82731428D01*
X80943333Y-82683809D01*
X80895714Y-82588571D01*
X80895714Y-82398095D01*
X80943333Y-82302857D01*
X81562380Y-81826666D02*
X80562380Y-81826666D01*
X81562380Y-81398095D02*
X81038571Y-81398095D01*
X80943333Y-81445714D01*
X80895714Y-81540952D01*
X80895714Y-81683809D01*
X80943333Y-81779047D01*
X80990952Y-81826666D01*
X80895714Y-81064761D02*
X80895714Y-80683809D01*
X80562380Y-80921904D02*
X81419523Y-80921904D01*
X81514761Y-80874285D01*
X81562380Y-80779047D01*
X81562380Y-80683809D01*
X81943333Y-79302857D02*
X81895714Y-79350476D01*
X81752857Y-79445714D01*
X81657619Y-79493333D01*
X81514761Y-79540952D01*
X81276666Y-79588571D01*
X81086190Y-79588571D01*
X80848095Y-79540952D01*
X80705238Y-79493333D01*
X80610000Y-79445714D01*
X80467142Y-79350476D01*
X80419523Y-79302857D01*
X81514761Y-78493333D02*
X81562380Y-78588571D01*
X81562380Y-78779047D01*
X81514761Y-78874285D01*
X81467142Y-78921904D01*
X81371904Y-78969523D01*
X81086190Y-78969523D01*
X80990952Y-78921904D01*
X80943333Y-78874285D01*
X80895714Y-78779047D01*
X80895714Y-78588571D01*
X80943333Y-78493333D01*
X81943333Y-78160000D02*
X81895714Y-78112380D01*
X81752857Y-78017142D01*
X81657619Y-77969523D01*
X81514761Y-77921904D01*
X81276666Y-77874285D01*
X81086190Y-77874285D01*
X80848095Y-77921904D01*
X80705238Y-77969523D01*
X80610000Y-78017142D01*
X80467142Y-78112380D01*
X80419523Y-78160000D01*
X80657619Y-76683809D02*
X80610000Y-76636190D01*
X80562380Y-76540952D01*
X80562380Y-76302857D01*
X80610000Y-76207619D01*
X80657619Y-76160000D01*
X80752857Y-76112380D01*
X80848095Y-76112380D01*
X80990952Y-76160000D01*
X81562380Y-76731428D01*
X81562380Y-76112380D01*
X80562380Y-75493333D02*
X80562380Y-75398095D01*
X80610000Y-75302857D01*
X80657619Y-75255238D01*
X80752857Y-75207619D01*
X80943333Y-75160000D01*
X81181428Y-75160000D01*
X81371904Y-75207619D01*
X81467142Y-75255238D01*
X81514761Y-75302857D01*
X81562380Y-75398095D01*
X81562380Y-75493333D01*
X81514761Y-75588571D01*
X81467142Y-75636190D01*
X81371904Y-75683809D01*
X81181428Y-75731428D01*
X80943333Y-75731428D01*
X80752857Y-75683809D01*
X80657619Y-75636190D01*
X80610000Y-75588571D01*
X80562380Y-75493333D01*
X80657619Y-74779047D02*
X80610000Y-74731428D01*
X80562380Y-74636190D01*
X80562380Y-74398095D01*
X80610000Y-74302857D01*
X80657619Y-74255238D01*
X80752857Y-74207619D01*
X80848095Y-74207619D01*
X80990952Y-74255238D01*
X81562380Y-74826666D01*
X81562380Y-74207619D01*
X80657619Y-73826666D02*
X80610000Y-73779047D01*
X80562380Y-73683809D01*
X80562380Y-73445714D01*
X80610000Y-73350476D01*
X80657619Y-73302857D01*
X80752857Y-73255238D01*
X80848095Y-73255238D01*
X80990952Y-73302857D01*
X81562380Y-73874285D01*
X81562380Y-73255238D01*
X81562380Y-71493333D02*
X81086190Y-71826666D01*
X81562380Y-72064761D02*
X80562380Y-72064761D01*
X80562380Y-71683809D01*
X80610000Y-71588571D01*
X80657619Y-71540952D01*
X80752857Y-71493333D01*
X80895714Y-71493333D01*
X80990952Y-71540952D01*
X81038571Y-71588571D01*
X81086190Y-71683809D01*
X81086190Y-72064761D01*
X81562380Y-71064761D02*
X80895714Y-71064761D01*
X80562380Y-71064761D02*
X80610000Y-71112380D01*
X80657619Y-71064761D01*
X80610000Y-71017142D01*
X80562380Y-71064761D01*
X80657619Y-71064761D01*
X81514761Y-70160000D02*
X81562380Y-70255238D01*
X81562380Y-70445714D01*
X81514761Y-70540952D01*
X81467142Y-70588571D01*
X81371904Y-70636190D01*
X81086190Y-70636190D01*
X80990952Y-70588571D01*
X80943333Y-70540952D01*
X80895714Y-70445714D01*
X80895714Y-70255238D01*
X80943333Y-70160000D01*
X81562380Y-69731428D02*
X80562380Y-69731428D01*
X81562380Y-69302857D02*
X81038571Y-69302857D01*
X80943333Y-69350476D01*
X80895714Y-69445714D01*
X80895714Y-69588571D01*
X80943333Y-69683809D01*
X80990952Y-69731428D01*
X81562380Y-68398095D02*
X81038571Y-68398095D01*
X80943333Y-68445714D01*
X80895714Y-68540952D01*
X80895714Y-68731428D01*
X80943333Y-68826666D01*
X81514761Y-68398095D02*
X81562380Y-68493333D01*
X81562380Y-68731428D01*
X81514761Y-68826666D01*
X81419523Y-68874285D01*
X81324285Y-68874285D01*
X81229047Y-68826666D01*
X81181428Y-68731428D01*
X81181428Y-68493333D01*
X81133809Y-68398095D01*
X81562380Y-67921904D02*
X80895714Y-67921904D01*
X81086190Y-67921904D02*
X80990952Y-67874285D01*
X80943333Y-67826666D01*
X80895714Y-67731428D01*
X80895714Y-67636190D01*
X81562380Y-66874285D02*
X80562380Y-66874285D01*
X81514761Y-66874285D02*
X81562380Y-66969523D01*
X81562380Y-67160000D01*
X81514761Y-67255238D01*
X81467142Y-67302857D01*
X81371904Y-67350476D01*
X81086190Y-67350476D01*
X80990952Y-67302857D01*
X80943333Y-67255238D01*
X80895714Y-67160000D01*
X80895714Y-66969523D01*
X80943333Y-66874285D01*
X81276666Y-65683809D02*
X81276666Y-65207619D01*
X81562380Y-65779047D02*
X80562380Y-65445714D01*
X81562380Y-65112380D01*
X81467142Y-64779047D02*
X81514761Y-64731428D01*
X81562380Y-64779047D01*
X81514761Y-64826666D01*
X81467142Y-64779047D01*
X81562380Y-64779047D01*
X81467142Y-62969523D02*
X81514761Y-63017142D01*
X81562380Y-63160000D01*
X81562380Y-63255238D01*
X81514761Y-63398095D01*
X81419523Y-63493333D01*
X81324285Y-63540952D01*
X81133809Y-63588571D01*
X80990952Y-63588571D01*
X80800476Y-63540952D01*
X80705238Y-63493333D01*
X80610000Y-63398095D01*
X80562380Y-63255238D01*
X80562380Y-63160000D01*
X80610000Y-63017142D01*
X80657619Y-62969523D01*
X81562380Y-62540952D02*
X80895714Y-62540952D01*
X80562380Y-62540952D02*
X80610000Y-62588571D01*
X80657619Y-62540952D01*
X80610000Y-62493333D01*
X80562380Y-62540952D01*
X80657619Y-62540952D01*
X80895714Y-62064761D02*
X81562380Y-62064761D01*
X80990952Y-62064761D02*
X80943333Y-62017142D01*
X80895714Y-61921904D01*
X80895714Y-61779047D01*
X80943333Y-61683809D01*
X81038571Y-61636190D01*
X81562380Y-61636190D01*
X81562380Y-61160000D02*
X80895714Y-61160000D01*
X80562380Y-61160000D02*
X80610000Y-61207619D01*
X80657619Y-61160000D01*
X80610000Y-61112380D01*
X80562380Y-61160000D01*
X80657619Y-61160000D01*
X81467142Y-60683809D02*
X81514761Y-60636190D01*
X81562380Y-60683809D01*
X81514761Y-60731428D01*
X81467142Y-60683809D01*
X81562380Y-60683809D01*
X82886666Y-93469523D02*
X82886666Y-92993333D01*
X83172380Y-93564761D02*
X82172380Y-93231428D01*
X83172380Y-92898095D01*
X83172380Y-92421904D02*
X83124761Y-92517142D01*
X83029523Y-92564761D01*
X82172380Y-92564761D01*
X83172380Y-91898095D02*
X83124761Y-91993333D01*
X83029523Y-92040952D01*
X82172380Y-92040952D01*
X83172380Y-90183809D02*
X82696190Y-90517142D01*
X83172380Y-90755238D02*
X82172380Y-90755238D01*
X82172380Y-90374285D01*
X82220000Y-90279047D01*
X82267619Y-90231428D01*
X82362857Y-90183809D01*
X82505714Y-90183809D01*
X82600952Y-90231428D01*
X82648571Y-90279047D01*
X82696190Y-90374285D01*
X82696190Y-90755238D01*
X83172380Y-89755238D02*
X82505714Y-89755238D01*
X82172380Y-89755238D02*
X82220000Y-89802857D01*
X82267619Y-89755238D01*
X82220000Y-89707619D01*
X82172380Y-89755238D01*
X82267619Y-89755238D01*
X82505714Y-88850476D02*
X83315238Y-88850476D01*
X83410476Y-88898095D01*
X83458095Y-88945714D01*
X83505714Y-89040952D01*
X83505714Y-89183809D01*
X83458095Y-89279047D01*
X83124761Y-88850476D02*
X83172380Y-88945714D01*
X83172380Y-89136190D01*
X83124761Y-89231428D01*
X83077142Y-89279047D01*
X82981904Y-89326666D01*
X82696190Y-89326666D01*
X82600952Y-89279047D01*
X82553333Y-89231428D01*
X82505714Y-89136190D01*
X82505714Y-88945714D01*
X82553333Y-88850476D01*
X83172380Y-88374285D02*
X82172380Y-88374285D01*
X83172380Y-87945714D02*
X82648571Y-87945714D01*
X82553333Y-87993333D01*
X82505714Y-88088571D01*
X82505714Y-88231428D01*
X82553333Y-88326666D01*
X82600952Y-88374285D01*
X82505714Y-87612380D02*
X82505714Y-87231428D01*
X82172380Y-87469523D02*
X83029523Y-87469523D01*
X83124761Y-87421904D01*
X83172380Y-87326666D01*
X83172380Y-87231428D01*
X83124761Y-86945714D02*
X83172380Y-86850476D01*
X83172380Y-86660000D01*
X83124761Y-86564761D01*
X83029523Y-86517142D01*
X82981904Y-86517142D01*
X82886666Y-86564761D01*
X82839047Y-86660000D01*
X82839047Y-86802857D01*
X82791428Y-86898095D01*
X82696190Y-86945714D01*
X82648571Y-86945714D01*
X82553333Y-86898095D01*
X82505714Y-86802857D01*
X82505714Y-86660000D01*
X82553333Y-86564761D01*
X83172380Y-84755238D02*
X82696190Y-85088571D01*
X83172380Y-85326666D02*
X82172380Y-85326666D01*
X82172380Y-84945714D01*
X82220000Y-84850476D01*
X82267619Y-84802857D01*
X82362857Y-84755238D01*
X82505714Y-84755238D01*
X82600952Y-84802857D01*
X82648571Y-84850476D01*
X82696190Y-84945714D01*
X82696190Y-85326666D01*
X83124761Y-83945714D02*
X83172380Y-84040952D01*
X83172380Y-84231428D01*
X83124761Y-84326666D01*
X83029523Y-84374285D01*
X82648571Y-84374285D01*
X82553333Y-84326666D01*
X82505714Y-84231428D01*
X82505714Y-84040952D01*
X82553333Y-83945714D01*
X82648571Y-83898095D01*
X82743809Y-83898095D01*
X82839047Y-84374285D01*
X83124761Y-83517142D02*
X83172380Y-83421904D01*
X83172380Y-83231428D01*
X83124761Y-83136190D01*
X83029523Y-83088571D01*
X82981904Y-83088571D01*
X82886666Y-83136190D01*
X82839047Y-83231428D01*
X82839047Y-83374285D01*
X82791428Y-83469523D01*
X82696190Y-83517142D01*
X82648571Y-83517142D01*
X82553333Y-83469523D01*
X82505714Y-83374285D01*
X82505714Y-83231428D01*
X82553333Y-83136190D01*
X83124761Y-82279047D02*
X83172380Y-82374285D01*
X83172380Y-82564761D01*
X83124761Y-82660000D01*
X83029523Y-82707619D01*
X82648571Y-82707619D01*
X82553333Y-82660000D01*
X82505714Y-82564761D01*
X82505714Y-82374285D01*
X82553333Y-82279047D01*
X82648571Y-82231428D01*
X82743809Y-82231428D01*
X82839047Y-82707619D01*
X83172380Y-81802857D02*
X82505714Y-81802857D01*
X82696190Y-81802857D02*
X82600952Y-81755238D01*
X82553333Y-81707619D01*
X82505714Y-81612380D01*
X82505714Y-81517142D01*
X82505714Y-81279047D02*
X83172380Y-81040952D01*
X82505714Y-80802857D01*
X83124761Y-80040952D02*
X83172380Y-80136190D01*
X83172380Y-80326666D01*
X83124761Y-80421904D01*
X83029523Y-80469523D01*
X82648571Y-80469523D01*
X82553333Y-80421904D01*
X82505714Y-80326666D01*
X82505714Y-80136190D01*
X82553333Y-80040952D01*
X82648571Y-79993333D01*
X82743809Y-79993333D01*
X82839047Y-80469523D01*
X83172380Y-79136190D02*
X82172380Y-79136190D01*
X83124761Y-79136190D02*
X83172380Y-79231428D01*
X83172380Y-79421904D01*
X83124761Y-79517142D01*
X83077142Y-79564761D01*
X82981904Y-79612380D01*
X82696190Y-79612380D01*
X82600952Y-79564761D01*
X82553333Y-79517142D01*
X82505714Y-79421904D01*
X82505714Y-79231428D01*
X82553333Y-79136190D01*
X83077142Y-78660000D02*
X83124761Y-78612380D01*
X83172380Y-78660000D01*
X83124761Y-78707619D01*
X83077142Y-78660000D01*
X83172380Y-78660000D01*
X83172380Y-76945714D02*
X83172380Y-77421904D01*
X82172380Y-77421904D01*
X83172380Y-76612380D02*
X82505714Y-76612380D01*
X82172380Y-76612380D02*
X82220000Y-76660000D01*
X82267619Y-76612380D01*
X82220000Y-76564761D01*
X82172380Y-76612380D01*
X82267619Y-76612380D01*
X83124761Y-75707619D02*
X83172380Y-75802857D01*
X83172380Y-75993333D01*
X83124761Y-76088571D01*
X83077142Y-76136190D01*
X82981904Y-76183809D01*
X82696190Y-76183809D01*
X82600952Y-76136190D01*
X82553333Y-76088571D01*
X82505714Y-75993333D01*
X82505714Y-75802857D01*
X82553333Y-75707619D01*
X83124761Y-74898095D02*
X83172380Y-74993333D01*
X83172380Y-75183809D01*
X83124761Y-75279047D01*
X83029523Y-75326666D01*
X82648571Y-75326666D01*
X82553333Y-75279047D01*
X82505714Y-75183809D01*
X82505714Y-74993333D01*
X82553333Y-74898095D01*
X82648571Y-74850476D01*
X82743809Y-74850476D01*
X82839047Y-75326666D01*
X82505714Y-74421904D02*
X83172380Y-74421904D01*
X82600952Y-74421904D02*
X82553333Y-74374285D01*
X82505714Y-74279047D01*
X82505714Y-74136190D01*
X82553333Y-74040952D01*
X82648571Y-73993333D01*
X83172380Y-73993333D01*
X83124761Y-73564761D02*
X83172380Y-73469523D01*
X83172380Y-73279047D01*
X83124761Y-73183809D01*
X83029523Y-73136190D01*
X82981904Y-73136190D01*
X82886666Y-73183809D01*
X82839047Y-73279047D01*
X82839047Y-73421904D01*
X82791428Y-73517142D01*
X82696190Y-73564761D01*
X82648571Y-73564761D01*
X82553333Y-73517142D01*
X82505714Y-73421904D01*
X82505714Y-73279047D01*
X82553333Y-73183809D01*
X83124761Y-72326666D02*
X83172380Y-72421904D01*
X83172380Y-72612380D01*
X83124761Y-72707619D01*
X83029523Y-72755238D01*
X82648571Y-72755238D01*
X82553333Y-72707619D01*
X82505714Y-72612380D01*
X82505714Y-72421904D01*
X82553333Y-72326666D01*
X82648571Y-72279047D01*
X82743809Y-72279047D01*
X82839047Y-72755238D01*
X83172380Y-71421904D02*
X82172380Y-71421904D01*
X83124761Y-71421904D02*
X83172380Y-71517142D01*
X83172380Y-71707619D01*
X83124761Y-71802857D01*
X83077142Y-71850476D01*
X82981904Y-71898095D01*
X82696190Y-71898095D01*
X82600952Y-71850476D01*
X82553333Y-71802857D01*
X82505714Y-71707619D01*
X82505714Y-71517142D01*
X82553333Y-71421904D01*
X82505714Y-70326666D02*
X82505714Y-69945714D01*
X83172380Y-70183809D02*
X82315238Y-70183809D01*
X82220000Y-70136190D01*
X82172380Y-70040952D01*
X82172380Y-69945714D01*
X83172380Y-69469523D02*
X83124761Y-69564761D01*
X83077142Y-69612380D01*
X82981904Y-69660000D01*
X82696190Y-69660000D01*
X82600952Y-69612380D01*
X82553333Y-69564761D01*
X82505714Y-69469523D01*
X82505714Y-69326666D01*
X82553333Y-69231428D01*
X82600952Y-69183809D01*
X82696190Y-69136190D01*
X82981904Y-69136190D01*
X83077142Y-69183809D01*
X83124761Y-69231428D01*
X83172380Y-69326666D01*
X83172380Y-69469523D01*
X83172380Y-68707619D02*
X82505714Y-68707619D01*
X82696190Y-68707619D02*
X82600952Y-68660000D01*
X82553333Y-68612380D01*
X82505714Y-68517142D01*
X82505714Y-68421904D01*
X83172380Y-67326666D02*
X82172380Y-67326666D01*
X83172380Y-66898095D02*
X82648571Y-66898095D01*
X82553333Y-66945714D01*
X82505714Y-67040952D01*
X82505714Y-67183809D01*
X82553333Y-67279047D01*
X82600952Y-67326666D01*
X83172380Y-66279047D02*
X83124761Y-66374285D01*
X83077142Y-66421904D01*
X82981904Y-66469523D01*
X82696190Y-66469523D01*
X82600952Y-66421904D01*
X82553333Y-66374285D01*
X82505714Y-66279047D01*
X82505714Y-66136190D01*
X82553333Y-66040952D01*
X82600952Y-65993333D01*
X82696190Y-65945714D01*
X82981904Y-65945714D01*
X83077142Y-65993333D01*
X83124761Y-66040952D01*
X83172380Y-66136190D01*
X83172380Y-66279047D01*
X83172380Y-65517142D02*
X82172380Y-65517142D01*
X82553333Y-65517142D02*
X82505714Y-65421904D01*
X82505714Y-65231428D01*
X82553333Y-65136190D01*
X82600952Y-65088571D01*
X82696190Y-65040952D01*
X82981904Y-65040952D01*
X83077142Y-65088571D01*
X83124761Y-65136190D01*
X83172380Y-65231428D01*
X83172380Y-65421904D01*
X83124761Y-65517142D01*
X83172380Y-64612380D02*
X82172380Y-64612380D01*
X82553333Y-64612380D02*
X82505714Y-64517142D01*
X82505714Y-64326666D01*
X82553333Y-64231428D01*
X82600952Y-64183809D01*
X82696190Y-64136190D01*
X82981904Y-64136190D01*
X83077142Y-64183809D01*
X83124761Y-64231428D01*
X83172380Y-64326666D01*
X83172380Y-64517142D01*
X83124761Y-64612380D01*
X82505714Y-63802857D02*
X83172380Y-63564761D01*
X82505714Y-63326666D02*
X83172380Y-63564761D01*
X83410476Y-63660000D01*
X83458095Y-63707619D01*
X83505714Y-63802857D01*
X83172380Y-62945714D02*
X82505714Y-62945714D01*
X82172380Y-62945714D02*
X82220000Y-62993333D01*
X82267619Y-62945714D01*
X82220000Y-62898095D01*
X82172380Y-62945714D01*
X82267619Y-62945714D01*
X83124761Y-62517142D02*
X83172380Y-62421904D01*
X83172380Y-62231428D01*
X83124761Y-62136190D01*
X83029523Y-62088571D01*
X82981904Y-62088571D01*
X82886666Y-62136190D01*
X82839047Y-62231428D01*
X82839047Y-62374285D01*
X82791428Y-62469523D01*
X82696190Y-62517142D01*
X82648571Y-62517142D01*
X82553333Y-62469523D01*
X82505714Y-62374285D01*
X82505714Y-62231428D01*
X82553333Y-62136190D01*
X82505714Y-61802857D02*
X82505714Y-61421904D01*
X82172380Y-61660000D02*
X83029523Y-61660000D01*
X83124761Y-61612380D01*
X83172380Y-61517142D01*
X83172380Y-61421904D01*
X82505714Y-59898095D02*
X83172380Y-59898095D01*
X82505714Y-60326666D02*
X83029523Y-60326666D01*
X83124761Y-60279047D01*
X83172380Y-60183809D01*
X83172380Y-60040952D01*
X83124761Y-59945714D01*
X83077142Y-59898095D01*
X83124761Y-59469523D02*
X83172380Y-59374285D01*
X83172380Y-59183809D01*
X83124761Y-59088571D01*
X83029523Y-59040952D01*
X82981904Y-59040952D01*
X82886666Y-59088571D01*
X82839047Y-59183809D01*
X82839047Y-59326666D01*
X82791428Y-59421904D01*
X82696190Y-59469523D01*
X82648571Y-59469523D01*
X82553333Y-59421904D01*
X82505714Y-59326666D01*
X82505714Y-59183809D01*
X82553333Y-59088571D01*
X83124761Y-58231428D02*
X83172380Y-58326666D01*
X83172380Y-58517142D01*
X83124761Y-58612380D01*
X83029523Y-58660000D01*
X82648571Y-58660000D01*
X82553333Y-58612380D01*
X82505714Y-58517142D01*
X82505714Y-58326666D01*
X82553333Y-58231428D01*
X82648571Y-58183809D01*
X82743809Y-58183809D01*
X82839047Y-58660000D01*
X83172380Y-56850476D02*
X83124761Y-56945714D01*
X83077142Y-56993333D01*
X82981904Y-57040952D01*
X82696190Y-57040952D01*
X82600952Y-56993333D01*
X82553333Y-56945714D01*
X82505714Y-56850476D01*
X82505714Y-56707619D01*
X82553333Y-56612380D01*
X82600952Y-56564761D01*
X82696190Y-56517142D01*
X82981904Y-56517142D01*
X83077142Y-56564761D01*
X83124761Y-56612380D01*
X83172380Y-56707619D01*
X83172380Y-56850476D01*
X82505714Y-56088571D02*
X83172380Y-56088571D01*
X82600952Y-56088571D02*
X82553333Y-56040952D01*
X82505714Y-55945714D01*
X82505714Y-55802857D01*
X82553333Y-55707619D01*
X82648571Y-55660000D01*
X83172380Y-55660000D01*
X83172380Y-55040952D02*
X83124761Y-55136190D01*
X83029523Y-55183809D01*
X82172380Y-55183809D01*
X82505714Y-54755238D02*
X83172380Y-54517142D01*
X82505714Y-54279047D02*
X83172380Y-54517142D01*
X83410476Y-54612380D01*
X83458095Y-54660000D01*
X83505714Y-54755238D01*
X83077142Y-53898095D02*
X83124761Y-53850476D01*
X83172380Y-53898095D01*
X83124761Y-53945714D01*
X83077142Y-53898095D01*
X83172380Y-53898095D01*
D10*
G36*
X52070000Y-153670000D02*
G01*
X44450000Y-153670000D01*
X44450000Y-151130000D01*
X52070000Y-151130000D01*
X52070000Y-153670000D01*
G37*
X52070000Y-153670000D02*
X44450000Y-153670000D01*
X44450000Y-151130000D01*
X52070000Y-151130000D01*
X52070000Y-153670000D01*
D12*
X103403571Y-152213571D02*
X103903571Y-153713571D01*
X104403571Y-152213571D01*
X104903571Y-153713571D02*
X104903571Y-152213571D01*
X106475000Y-153570714D02*
X106403571Y-153642142D01*
X106189285Y-153713571D01*
X106046428Y-153713571D01*
X105832142Y-153642142D01*
X105689285Y-153499285D01*
X105617857Y-153356428D01*
X105546428Y-153070714D01*
X105546428Y-152856428D01*
X105617857Y-152570714D01*
X105689285Y-152427857D01*
X105832142Y-152285000D01*
X106046428Y-152213571D01*
X106189285Y-152213571D01*
X106403571Y-152285000D01*
X106475000Y-152356428D01*
X107117857Y-153142142D02*
X108260714Y-153142142D01*
X109760714Y-153713571D02*
X108903571Y-153713571D01*
X109332142Y-153713571D02*
X109332142Y-152213571D01*
X109189285Y-152427857D01*
X109046428Y-152570714D01*
X108903571Y-152642142D01*
X110689285Y-152213571D02*
X110832142Y-152213571D01*
X110975000Y-152285000D01*
X111046428Y-152356428D01*
X111117857Y-152499285D01*
X111189285Y-152785000D01*
X111189285Y-153142142D01*
X111117857Y-153427857D01*
X111046428Y-153570714D01*
X110975000Y-153642142D01*
X110832142Y-153713571D01*
X110689285Y-153713571D01*
X110546428Y-153642142D01*
X110475000Y-153570714D01*
X110403571Y-153427857D01*
X110332142Y-153142142D01*
X110332142Y-152785000D01*
X110403571Y-152499285D01*
X110475000Y-152356428D01*
X110546428Y-152285000D01*
X110689285Y-152213571D01*
X112117857Y-152213571D02*
X112260714Y-152213571D01*
X112403571Y-152285000D01*
X112475000Y-152356428D01*
X112546428Y-152499285D01*
X112617857Y-152785000D01*
X112617857Y-153142142D01*
X112546428Y-153427857D01*
X112475000Y-153570714D01*
X112403571Y-153642142D01*
X112260714Y-153713571D01*
X112117857Y-153713571D01*
X111975000Y-153642142D01*
X111903571Y-153570714D01*
X111832142Y-153427857D01*
X111760714Y-153142142D01*
X111760714Y-152785000D01*
X111832142Y-152499285D01*
X111903571Y-152356428D01*
X111975000Y-152285000D01*
X112117857Y-152213571D01*
X113975000Y-152213571D02*
X113260714Y-152213571D01*
X113189285Y-152927857D01*
X113260714Y-152856428D01*
X113403571Y-152785000D01*
X113760714Y-152785000D01*
X113903571Y-152856428D01*
X113975000Y-152927857D01*
X114046428Y-153070714D01*
X114046428Y-153427857D01*
X113975000Y-153570714D01*
X113903571Y-153642142D01*
X113760714Y-153713571D01*
X113403571Y-153713571D01*
X113260714Y-153642142D01*
X113189285Y-153570714D01*
X115546428Y-153713571D02*
X115046428Y-152999285D01*
X114689285Y-153713571D02*
X114689285Y-152213571D01*
X115260714Y-152213571D01*
X115403571Y-152285000D01*
X115475000Y-152356428D01*
X115546428Y-152499285D01*
X115546428Y-152713571D01*
X115475000Y-152856428D01*
X115403571Y-152927857D01*
X115260714Y-152999285D01*
X114689285Y-152999285D01*
X116189285Y-153142142D02*
X117332142Y-153142142D01*
X118046428Y-152927857D02*
X118546428Y-152927857D01*
X118760714Y-153713571D02*
X118046428Y-153713571D01*
X118046428Y-152213571D01*
X118760714Y-152213571D01*
X119260714Y-152213571D02*
X120260714Y-153713571D01*
X120260714Y-152213571D02*
X119260714Y-153713571D01*
X120832142Y-153713571D02*
X120832142Y-152213571D01*
X121403571Y-152213571D01*
X121546428Y-152285000D01*
X121617857Y-152356428D01*
X121689285Y-152499285D01*
X121689285Y-152713571D01*
X121617857Y-152856428D01*
X121546428Y-152927857D01*
X121403571Y-152999285D01*
X120832142Y-152999285D01*
X123760714Y-152213571D02*
X123903571Y-152213571D01*
X124046428Y-152285000D01*
X124117857Y-152356428D01*
X124189285Y-152499285D01*
X124260714Y-152785000D01*
X124260714Y-153142142D01*
X124189285Y-153427857D01*
X124117857Y-153570714D01*
X124046428Y-153642142D01*
X123903571Y-153713571D01*
X123760714Y-153713571D01*
X123617857Y-153642142D01*
X123546428Y-153570714D01*
X123475000Y-153427857D01*
X123403571Y-153142142D01*
X123403571Y-152785000D01*
X123475000Y-152499285D01*
X123546428Y-152356428D01*
X123617857Y-152285000D01*
X123760714Y-152213571D01*
X124760714Y-152213571D02*
X125760714Y-152213571D01*
X125117857Y-153713571D01*
X127117857Y-153713571D02*
X126260714Y-153713571D01*
X126689285Y-153713571D02*
X126689285Y-152213571D01*
X126546428Y-152427857D01*
X126403571Y-152570714D01*
X126260714Y-152642142D01*
X128046428Y-152213571D02*
X128189285Y-152213571D01*
X128332142Y-152285000D01*
X128403571Y-152356428D01*
X128475000Y-152499285D01*
X128546428Y-152785000D01*
X128546428Y-153142142D01*
X128475000Y-153427857D01*
X128403571Y-153570714D01*
X128332142Y-153642142D01*
X128189285Y-153713571D01*
X128046428Y-153713571D01*
X127903571Y-153642142D01*
X127832142Y-153570714D01*
X127760714Y-153427857D01*
X127689285Y-153142142D01*
X127689285Y-152785000D01*
X127760714Y-152499285D01*
X127832142Y-152356428D01*
X127903571Y-152285000D01*
X128046428Y-152213571D01*
X129117857Y-152356428D02*
X129189285Y-152285000D01*
X129332142Y-152213571D01*
X129689285Y-152213571D01*
X129832142Y-152285000D01*
X129903571Y-152356428D01*
X129975000Y-152499285D01*
X129975000Y-152642142D01*
X129903571Y-152856428D01*
X129046428Y-153713571D01*
X129975000Y-153713571D01*
X130546428Y-152356428D02*
X130617857Y-152285000D01*
X130760714Y-152213571D01*
X131117857Y-152213571D01*
X131260714Y-152285000D01*
X131332142Y-152356428D01*
X131403571Y-152499285D01*
X131403571Y-152642142D01*
X131332142Y-152856428D01*
X130475000Y-153713571D01*
X131403571Y-153713571D01*
X35262857Y-149101071D02*
X35762857Y-150601071D01*
X36262857Y-149101071D01*
X36762857Y-150601071D02*
X36762857Y-149101071D01*
X38334285Y-150458214D02*
X38262857Y-150529642D01*
X38048571Y-150601071D01*
X37905714Y-150601071D01*
X37691428Y-150529642D01*
X37548571Y-150386785D01*
X37477142Y-150243928D01*
X37405714Y-149958214D01*
X37405714Y-149743928D01*
X37477142Y-149458214D01*
X37548571Y-149315357D01*
X37691428Y-149172500D01*
X37905714Y-149101071D01*
X38048571Y-149101071D01*
X38262857Y-149172500D01*
X38334285Y-149243928D01*
X38977142Y-150029642D02*
X40120000Y-150029642D01*
X41620000Y-150601071D02*
X40762857Y-150601071D01*
X41191428Y-150601071D02*
X41191428Y-149101071D01*
X41048571Y-149315357D01*
X40905714Y-149458214D01*
X40762857Y-149529642D01*
X42548571Y-149101071D02*
X42691428Y-149101071D01*
X42834285Y-149172500D01*
X42905714Y-149243928D01*
X42977142Y-149386785D01*
X43048571Y-149672500D01*
X43048571Y-150029642D01*
X42977142Y-150315357D01*
X42905714Y-150458214D01*
X42834285Y-150529642D01*
X42691428Y-150601071D01*
X42548571Y-150601071D01*
X42405714Y-150529642D01*
X42334285Y-150458214D01*
X42262857Y-150315357D01*
X42191428Y-150029642D01*
X42191428Y-149672500D01*
X42262857Y-149386785D01*
X42334285Y-149243928D01*
X42405714Y-149172500D01*
X42548571Y-149101071D01*
X43977142Y-149101071D02*
X44120000Y-149101071D01*
X44262857Y-149172500D01*
X44334285Y-149243928D01*
X44405714Y-149386785D01*
X44477142Y-149672500D01*
X44477142Y-150029642D01*
X44405714Y-150315357D01*
X44334285Y-150458214D01*
X44262857Y-150529642D01*
X44120000Y-150601071D01*
X43977142Y-150601071D01*
X43834285Y-150529642D01*
X43762857Y-150458214D01*
X43691428Y-150315357D01*
X43620000Y-150029642D01*
X43620000Y-149672500D01*
X43691428Y-149386785D01*
X43762857Y-149243928D01*
X43834285Y-149172500D01*
X43977142Y-149101071D01*
X45834285Y-149101071D02*
X45120000Y-149101071D01*
X45048571Y-149815357D01*
X45120000Y-149743928D01*
X45262857Y-149672500D01*
X45620000Y-149672500D01*
X45762857Y-149743928D01*
X45834285Y-149815357D01*
X45905714Y-149958214D01*
X45905714Y-150315357D01*
X45834285Y-150458214D01*
X45762857Y-150529642D01*
X45620000Y-150601071D01*
X45262857Y-150601071D01*
X45120000Y-150529642D01*
X45048571Y-150458214D01*
X47405714Y-150601071D02*
X46905714Y-149886785D01*
X46548571Y-150601071D02*
X46548571Y-149101071D01*
X47120000Y-149101071D01*
X47262857Y-149172500D01*
X47334285Y-149243928D01*
X47405714Y-149386785D01*
X47405714Y-149601071D01*
X47334285Y-149743928D01*
X47262857Y-149815357D01*
X47120000Y-149886785D01*
X46548571Y-149886785D01*
X48048571Y-150029642D02*
X49191428Y-150029642D01*
X49905714Y-150601071D02*
X49905714Y-149101071D01*
X49905714Y-149815357D02*
X50762857Y-149815357D01*
X50762857Y-150601071D02*
X50762857Y-149101071D01*
X51477142Y-150601071D02*
X51477142Y-149101071D01*
X51834285Y-149101071D01*
X52048571Y-149172500D01*
X52191428Y-149315357D01*
X52262857Y-149458214D01*
X52334285Y-149743928D01*
X52334285Y-149958214D01*
X52262857Y-150243928D01*
X52191428Y-150386785D01*
X52048571Y-150529642D01*
X51834285Y-150601071D01*
X51477142Y-150601071D01*
X53834285Y-150601071D02*
X53334285Y-149886785D01*
X52977142Y-150601071D02*
X52977142Y-149101071D01*
X53548571Y-149101071D01*
X53691428Y-149172500D01*
X53762857Y-149243928D01*
X53834285Y-149386785D01*
X53834285Y-149601071D01*
X53762857Y-149743928D01*
X53691428Y-149815357D01*
X53548571Y-149886785D01*
X52977142Y-149886785D01*
X35762857Y-151516071D02*
X35905714Y-151516071D01*
X36048571Y-151587500D01*
X36120000Y-151658928D01*
X36191428Y-151801785D01*
X36262857Y-152087500D01*
X36262857Y-152444642D01*
X36191428Y-152730357D01*
X36120000Y-152873214D01*
X36048571Y-152944642D01*
X35905714Y-153016071D01*
X35762857Y-153016071D01*
X35620000Y-152944642D01*
X35548571Y-152873214D01*
X35477142Y-152730357D01*
X35405714Y-152444642D01*
X35405714Y-152087500D01*
X35477142Y-151801785D01*
X35548571Y-151658928D01*
X35620000Y-151587500D01*
X35762857Y-151516071D01*
X36762857Y-151516071D02*
X37762857Y-151516071D01*
X37120000Y-153016071D01*
X39120000Y-153016071D02*
X38262857Y-153016071D01*
X38691428Y-153016071D02*
X38691428Y-151516071D01*
X38548571Y-151730357D01*
X38405714Y-151873214D01*
X38262857Y-151944642D01*
X40048571Y-151516071D02*
X40191428Y-151516071D01*
X40334285Y-151587500D01*
X40405714Y-151658928D01*
X40477142Y-151801785D01*
X40548571Y-152087500D01*
X40548571Y-152444642D01*
X40477142Y-152730357D01*
X40405714Y-152873214D01*
X40334285Y-152944642D01*
X40191428Y-153016071D01*
X40048571Y-153016071D01*
X39905714Y-152944642D01*
X39834285Y-152873214D01*
X39762857Y-152730357D01*
X39691428Y-152444642D01*
X39691428Y-152087500D01*
X39762857Y-151801785D01*
X39834285Y-151658928D01*
X39905714Y-151587500D01*
X40048571Y-151516071D01*
X41120000Y-151658928D02*
X41191428Y-151587500D01*
X41334285Y-151516071D01*
X41691428Y-151516071D01*
X41834285Y-151587500D01*
X41905714Y-151658928D01*
X41977142Y-151801785D01*
X41977142Y-151944642D01*
X41905714Y-152158928D01*
X41048571Y-153016071D01*
X41977142Y-153016071D01*
X42548571Y-151658928D02*
X42620000Y-151587500D01*
X42762857Y-151516071D01*
X43120000Y-151516071D01*
X43262857Y-151587500D01*
X43334285Y-151658928D01*
X43405714Y-151801785D01*
X43405714Y-151944642D01*
X43334285Y-152158928D01*
X42477142Y-153016071D01*
X43405714Y-153016071D01*
X75608571Y-89732857D02*
X75608571Y-90590000D01*
X75608571Y-90161428D02*
X74108571Y-90161428D01*
X74322857Y-90304285D01*
X74465714Y-90447142D01*
X74537142Y-90590000D01*
X75465714Y-89090000D02*
X75537142Y-89018571D01*
X75608571Y-89090000D01*
X75537142Y-89161428D01*
X75465714Y-89090000D01*
X75608571Y-89090000D01*
X74108571Y-87661428D02*
X74108571Y-88375714D01*
X74822857Y-88447142D01*
X74751428Y-88375714D01*
X74680000Y-88232857D01*
X74680000Y-87875714D01*
X74751428Y-87732857D01*
X74822857Y-87661428D01*
X74965714Y-87590000D01*
X75322857Y-87590000D01*
X75465714Y-87661428D01*
X75537142Y-87732857D01*
X75608571Y-87875714D01*
X75608571Y-88232857D01*
X75537142Y-88375714D01*
X75465714Y-88447142D01*
X75180000Y-87018571D02*
X75180000Y-86304285D01*
X75608571Y-87161428D02*
X74108571Y-86661428D01*
X75608571Y-86161428D01*
X74251428Y-84590000D02*
X74180000Y-84518571D01*
X74108571Y-84375714D01*
X74108571Y-84018571D01*
X74180000Y-83875714D01*
X74251428Y-83804285D01*
X74394285Y-83732857D01*
X74537142Y-83732857D01*
X74751428Y-83804285D01*
X75608571Y-84661428D01*
X75608571Y-83732857D01*
X74108571Y-82375714D02*
X74108571Y-83090000D01*
X74822857Y-83161428D01*
X74751428Y-83090000D01*
X74680000Y-82947142D01*
X74680000Y-82590000D01*
X74751428Y-82447142D01*
X74822857Y-82375714D01*
X74965714Y-82304285D01*
X75322857Y-82304285D01*
X75465714Y-82375714D01*
X75537142Y-82447142D01*
X75608571Y-82590000D01*
X75608571Y-82947142D01*
X75537142Y-83090000D01*
X75465714Y-83161428D01*
X74108571Y-81375714D02*
X74108571Y-81232857D01*
X74180000Y-81090000D01*
X74251428Y-81018571D01*
X74394285Y-80947142D01*
X74680000Y-80875714D01*
X75037142Y-80875714D01*
X75322857Y-80947142D01*
X75465714Y-81018571D01*
X75537142Y-81090000D01*
X75608571Y-81232857D01*
X75608571Y-81375714D01*
X75537142Y-81518571D01*
X75465714Y-81590000D01*
X75322857Y-81661428D01*
X75037142Y-81732857D01*
X74680000Y-81732857D01*
X74394285Y-81661428D01*
X74251428Y-81590000D01*
X74180000Y-81518571D01*
X74108571Y-81375714D01*
X74108571Y-80447142D02*
X75608571Y-79947142D01*
X74108571Y-79447142D01*
D13*
%TO.C,P101*%
X32962547Y-138725849D02*
X32962547Y-139415278D01*
X32962547Y-139070563D02*
X31756047Y-139070563D01*
X31928404Y-139185468D01*
X32043309Y-139300373D01*
X32100761Y-139415278D01*
X32505952Y-52299325D02*
X32448500Y-52241873D01*
X32391047Y-52126968D01*
X32391047Y-51839706D01*
X32448500Y-51724801D01*
X32505952Y-51667349D01*
X32620857Y-51609897D01*
X32735761Y-51609897D01*
X32908119Y-51667349D01*
X33597547Y-52356778D01*
X33597547Y-51609897D01*
X32505952Y-51150278D02*
X32448500Y-51092825D01*
X32391047Y-50977920D01*
X32391047Y-50690659D01*
X32448500Y-50575754D01*
X32505952Y-50518301D01*
X32620857Y-50460849D01*
X32735761Y-50460849D01*
X32908119Y-50518301D01*
X33597547Y-51207730D01*
X33597547Y-50460849D01*
D11*
%TO.C,F101*%
X74089571Y-75624714D02*
X74089571Y-75958047D01*
X74613380Y-75958047D02*
X73613380Y-75958047D01*
X73613380Y-75481857D01*
X74613380Y-74577095D02*
X74613380Y-75148523D01*
X74613380Y-74862809D02*
X73613380Y-74862809D01*
X73756238Y-74958047D01*
X73851476Y-75053285D01*
X73899095Y-75148523D01*
X73613380Y-73958047D02*
X73613380Y-73862809D01*
X73661000Y-73767571D01*
X73708619Y-73719952D01*
X73803857Y-73672333D01*
X73994333Y-73624714D01*
X74232428Y-73624714D01*
X74422904Y-73672333D01*
X74518142Y-73719952D01*
X74565761Y-73767571D01*
X74613380Y-73862809D01*
X74613380Y-73958047D01*
X74565761Y-74053285D01*
X74518142Y-74100904D01*
X74422904Y-74148523D01*
X74232428Y-74196142D01*
X73994333Y-74196142D01*
X73803857Y-74148523D01*
X73708619Y-74100904D01*
X73661000Y-74053285D01*
X73613380Y-73958047D01*
X74613380Y-72672333D02*
X74613380Y-73243761D01*
X74613380Y-72958047D02*
X73613380Y-72958047D01*
X73756238Y-73053285D01*
X73851476Y-73148523D01*
X73899095Y-73243761D01*
X69032380Y-84421142D02*
X69032380Y-84992571D01*
X69032380Y-84706857D02*
X68032380Y-84706857D01*
X68175238Y-84802095D01*
X68270476Y-84897333D01*
X68318095Y-84992571D01*
X68937142Y-83992571D02*
X68984761Y-83944952D01*
X69032380Y-83992571D01*
X68984761Y-84040190D01*
X68937142Y-83992571D01*
X69032380Y-83992571D01*
X68032380Y-83040190D02*
X68032380Y-83516380D01*
X68508571Y-83564000D01*
X68460952Y-83516380D01*
X68413333Y-83421142D01*
X68413333Y-83183047D01*
X68460952Y-83087809D01*
X68508571Y-83040190D01*
X68603809Y-82992571D01*
X68841904Y-82992571D01*
X68937142Y-83040190D01*
X68984761Y-83087809D01*
X69032380Y-83183047D01*
X69032380Y-83421142D01*
X68984761Y-83516380D01*
X68937142Y-83564000D01*
X68746666Y-82611619D02*
X68746666Y-82135428D01*
X69032380Y-82706857D02*
X68032380Y-82373523D01*
X69032380Y-82040190D01*
%TO.C,P102*%
X135469523Y-39822380D02*
X135469523Y-38822380D01*
X135850476Y-38822380D01*
X135945714Y-38870000D01*
X135993333Y-38917619D01*
X136040952Y-39012857D01*
X136040952Y-39155714D01*
X135993333Y-39250952D01*
X135945714Y-39298571D01*
X135850476Y-39346190D01*
X135469523Y-39346190D01*
X136993333Y-39822380D02*
X136421904Y-39822380D01*
X136707619Y-39822380D02*
X136707619Y-38822380D01*
X136612380Y-38965238D01*
X136517142Y-39060476D01*
X136421904Y-39108095D01*
X137612380Y-38822380D02*
X137707619Y-38822380D01*
X137802857Y-38870000D01*
X137850476Y-38917619D01*
X137898095Y-39012857D01*
X137945714Y-39203333D01*
X137945714Y-39441428D01*
X137898095Y-39631904D01*
X137850476Y-39727142D01*
X137802857Y-39774761D01*
X137707619Y-39822380D01*
X137612380Y-39822380D01*
X137517142Y-39774761D01*
X137469523Y-39727142D01*
X137421904Y-39631904D01*
X137374285Y-39441428D01*
X137374285Y-39203333D01*
X137421904Y-39012857D01*
X137469523Y-38917619D01*
X137517142Y-38870000D01*
X137612380Y-38822380D01*
X138326666Y-38917619D02*
X138374285Y-38870000D01*
X138469523Y-38822380D01*
X138707619Y-38822380D01*
X138802857Y-38870000D01*
X138850476Y-38917619D01*
X138898095Y-39012857D01*
X138898095Y-39108095D01*
X138850476Y-39250952D01*
X138279047Y-39822380D01*
X138898095Y-39822380D01*
%TO.C,P104*%
X186269523Y-39822380D02*
X186269523Y-38822380D01*
X186650476Y-38822380D01*
X186745714Y-38870000D01*
X186793333Y-38917619D01*
X186840952Y-39012857D01*
X186840952Y-39155714D01*
X186793333Y-39250952D01*
X186745714Y-39298571D01*
X186650476Y-39346190D01*
X186269523Y-39346190D01*
X187793333Y-39822380D02*
X187221904Y-39822380D01*
X187507619Y-39822380D02*
X187507619Y-38822380D01*
X187412380Y-38965238D01*
X187317142Y-39060476D01*
X187221904Y-39108095D01*
X188412380Y-38822380D02*
X188507619Y-38822380D01*
X188602857Y-38870000D01*
X188650476Y-38917619D01*
X188698095Y-39012857D01*
X188745714Y-39203333D01*
X188745714Y-39441428D01*
X188698095Y-39631904D01*
X188650476Y-39727142D01*
X188602857Y-39774761D01*
X188507619Y-39822380D01*
X188412380Y-39822380D01*
X188317142Y-39774761D01*
X188269523Y-39727142D01*
X188221904Y-39631904D01*
X188174285Y-39441428D01*
X188174285Y-39203333D01*
X188221904Y-39012857D01*
X188269523Y-38917619D01*
X188317142Y-38870000D01*
X188412380Y-38822380D01*
X189602857Y-39155714D02*
X189602857Y-39822380D01*
X189364761Y-38774761D02*
X189126666Y-39489047D01*
X189745714Y-39489047D01*
%TO.C,SW101*%
X71524761Y-112215714D02*
X71572380Y-112072857D01*
X71572380Y-111834761D01*
X71524761Y-111739523D01*
X71477142Y-111691904D01*
X71381904Y-111644285D01*
X71286666Y-111644285D01*
X71191428Y-111691904D01*
X71143809Y-111739523D01*
X71096190Y-111834761D01*
X71048571Y-112025238D01*
X71000952Y-112120476D01*
X70953333Y-112168095D01*
X70858095Y-112215714D01*
X70762857Y-112215714D01*
X70667619Y-112168095D01*
X70620000Y-112120476D01*
X70572380Y-112025238D01*
X70572380Y-111787142D01*
X70620000Y-111644285D01*
X70572380Y-111310952D02*
X71572380Y-111072857D01*
X70858095Y-110882380D01*
X71572380Y-110691904D01*
X70572380Y-110453809D01*
X71572380Y-109549047D02*
X71572380Y-110120476D01*
X71572380Y-109834761D02*
X70572380Y-109834761D01*
X70715238Y-109930000D01*
X70810476Y-110025238D01*
X70858095Y-110120476D01*
X70572380Y-108930000D02*
X70572380Y-108834761D01*
X70620000Y-108739523D01*
X70667619Y-108691904D01*
X70762857Y-108644285D01*
X70953333Y-108596666D01*
X71191428Y-108596666D01*
X71381904Y-108644285D01*
X71477142Y-108691904D01*
X71524761Y-108739523D01*
X71572380Y-108834761D01*
X71572380Y-108930000D01*
X71524761Y-109025238D01*
X71477142Y-109072857D01*
X71381904Y-109120476D01*
X71191428Y-109168095D01*
X70953333Y-109168095D01*
X70762857Y-109120476D01*
X70667619Y-109072857D01*
X70620000Y-109025238D01*
X70572380Y-108930000D01*
X71572380Y-107644285D02*
X71572380Y-108215714D01*
X71572380Y-107930000D02*
X70572380Y-107930000D01*
X70715238Y-108025238D01*
X70810476Y-108120476D01*
X70858095Y-108215714D01*
X81732380Y-111382380D02*
X81256190Y-111715714D01*
X81732380Y-111953809D02*
X80732380Y-111953809D01*
X80732380Y-111572857D01*
X80780000Y-111477619D01*
X80827619Y-111430000D01*
X80922857Y-111382380D01*
X81065714Y-111382380D01*
X81160952Y-111430000D01*
X81208571Y-111477619D01*
X81256190Y-111572857D01*
X81256190Y-111953809D01*
X81208571Y-110953809D02*
X81208571Y-110620476D01*
X81732380Y-110477619D02*
X81732380Y-110953809D01*
X80732380Y-110953809D01*
X80732380Y-110477619D01*
X81684761Y-110096666D02*
X81732380Y-109953809D01*
X81732380Y-109715714D01*
X81684761Y-109620476D01*
X81637142Y-109572857D01*
X81541904Y-109525238D01*
X81446666Y-109525238D01*
X81351428Y-109572857D01*
X81303809Y-109620476D01*
X81256190Y-109715714D01*
X81208571Y-109906190D01*
X81160952Y-110001428D01*
X81113333Y-110049047D01*
X81018095Y-110096666D01*
X80922857Y-110096666D01*
X80827619Y-110049047D01*
X80780000Y-110001428D01*
X80732380Y-109906190D01*
X80732380Y-109668095D01*
X80780000Y-109525238D01*
X81208571Y-109096666D02*
X81208571Y-108763333D01*
X81732380Y-108620476D02*
X81732380Y-109096666D01*
X80732380Y-109096666D01*
X80732380Y-108620476D01*
X80732380Y-108334761D02*
X80732380Y-107763333D01*
X81732380Y-108049047D02*
X80732380Y-108049047D01*
%TO.C,P103*%
X160869523Y-39822380D02*
X160869523Y-38822380D01*
X161250476Y-38822380D01*
X161345714Y-38870000D01*
X161393333Y-38917619D01*
X161440952Y-39012857D01*
X161440952Y-39155714D01*
X161393333Y-39250952D01*
X161345714Y-39298571D01*
X161250476Y-39346190D01*
X160869523Y-39346190D01*
X162393333Y-39822380D02*
X161821904Y-39822380D01*
X162107619Y-39822380D02*
X162107619Y-38822380D01*
X162012380Y-38965238D01*
X161917142Y-39060476D01*
X161821904Y-39108095D01*
X163012380Y-38822380D02*
X163107619Y-38822380D01*
X163202857Y-38870000D01*
X163250476Y-38917619D01*
X163298095Y-39012857D01*
X163345714Y-39203333D01*
X163345714Y-39441428D01*
X163298095Y-39631904D01*
X163250476Y-39727142D01*
X163202857Y-39774761D01*
X163107619Y-39822380D01*
X163012380Y-39822380D01*
X162917142Y-39774761D01*
X162869523Y-39727142D01*
X162821904Y-39631904D01*
X162774285Y-39441428D01*
X162774285Y-39203333D01*
X162821904Y-39012857D01*
X162869523Y-38917619D01*
X162917142Y-38870000D01*
X163012380Y-38822380D01*
X163679047Y-38822380D02*
X164298095Y-38822380D01*
X163964761Y-39203333D01*
X164107619Y-39203333D01*
X164202857Y-39250952D01*
X164250476Y-39298571D01*
X164298095Y-39393809D01*
X164298095Y-39631904D01*
X164250476Y-39727142D01*
X164202857Y-39774761D01*
X164107619Y-39822380D01*
X163821904Y-39822380D01*
X163726666Y-39774761D01*
X163679047Y-39727142D01*
%TO.C,J101*%
X51216085Y-130952180D02*
X51216085Y-131666466D01*
X51168466Y-131809323D01*
X51073228Y-131904561D01*
X50930371Y-131952180D01*
X50835133Y-131952180D01*
X52216085Y-131952180D02*
X51644657Y-131952180D01*
X51930371Y-131952180D02*
X51930371Y-130952180D01*
X51835133Y-131095038D01*
X51739895Y-131190276D01*
X51644657Y-131237895D01*
X52835133Y-130952180D02*
X52930371Y-130952180D01*
X53025609Y-130999800D01*
X53073228Y-131047419D01*
X53120847Y-131142657D01*
X53168466Y-131333133D01*
X53168466Y-131571228D01*
X53120847Y-131761704D01*
X53073228Y-131856942D01*
X53025609Y-131904561D01*
X52930371Y-131952180D01*
X52835133Y-131952180D01*
X52739895Y-131904561D01*
X52692276Y-131856942D01*
X52644657Y-131761704D01*
X52597038Y-131571228D01*
X52597038Y-131333133D01*
X52644657Y-131142657D01*
X52692276Y-131047419D01*
X52739895Y-130999800D01*
X52835133Y-130952180D01*
X54120847Y-131952180D02*
X53549419Y-131952180D01*
X53835133Y-131952180D02*
X53835133Y-130952180D01*
X53739895Y-131095038D01*
X53644657Y-131190276D01*
X53549419Y-131237895D01*
X59142380Y-99869047D02*
X60142380Y-99535714D01*
X59142380Y-99202380D01*
X60142380Y-98869047D02*
X59142380Y-98869047D01*
X60047142Y-97821428D02*
X60094761Y-97869047D01*
X60142380Y-98011904D01*
X60142380Y-98107142D01*
X60094761Y-98250000D01*
X59999523Y-98345238D01*
X59904285Y-98392857D01*
X59713809Y-98440476D01*
X59570952Y-98440476D01*
X59380476Y-98392857D01*
X59285238Y-98345238D01*
X59190000Y-98250000D01*
X59142380Y-98107142D01*
X59142380Y-98011904D01*
X59190000Y-97869047D01*
X59237619Y-97821428D01*
X59761428Y-97392857D02*
X59761428Y-96630952D01*
X59237619Y-96202380D02*
X59190000Y-96154761D01*
X59142380Y-96059523D01*
X59142380Y-95821428D01*
X59190000Y-95726190D01*
X59237619Y-95678571D01*
X59332857Y-95630952D01*
X59428095Y-95630952D01*
X59570952Y-95678571D01*
X60142380Y-96250000D01*
X60142380Y-95630952D01*
X59142380Y-95011904D02*
X59142380Y-94916666D01*
X59190000Y-94821428D01*
X59237619Y-94773809D01*
X59332857Y-94726190D01*
X59523333Y-94678571D01*
X59761428Y-94678571D01*
X59951904Y-94726190D01*
X60047142Y-94773809D01*
X60094761Y-94821428D01*
X60142380Y-94916666D01*
X60142380Y-95011904D01*
X60094761Y-95107142D01*
X60047142Y-95154761D01*
X59951904Y-95202380D01*
X59761428Y-95250000D01*
X59523333Y-95250000D01*
X59332857Y-95202380D01*
X59237619Y-95154761D01*
X59190000Y-95107142D01*
X59142380Y-95011904D01*
X60094761Y-93535714D02*
X60142380Y-93392857D01*
X60142380Y-93154761D01*
X60094761Y-93059523D01*
X60047142Y-93011904D01*
X59951904Y-92964285D01*
X59856666Y-92964285D01*
X59761428Y-93011904D01*
X59713809Y-93059523D01*
X59666190Y-93154761D01*
X59618571Y-93345238D01*
X59570952Y-93440476D01*
X59523333Y-93488095D01*
X59428095Y-93535714D01*
X59332857Y-93535714D01*
X59237619Y-93488095D01*
X59190000Y-93440476D01*
X59142380Y-93345238D01*
X59142380Y-93107142D01*
X59190000Y-92964285D01*
X60142380Y-92535714D02*
X59475714Y-92535714D01*
X59142380Y-92535714D02*
X59190000Y-92583333D01*
X59237619Y-92535714D01*
X59190000Y-92488095D01*
X59142380Y-92535714D01*
X59237619Y-92535714D01*
X60142380Y-91630952D02*
X59142380Y-91630952D01*
X60094761Y-91630952D02*
X60142380Y-91726190D01*
X60142380Y-91916666D01*
X60094761Y-92011904D01*
X60047142Y-92059523D01*
X59951904Y-92107142D01*
X59666190Y-92107142D01*
X59570952Y-92059523D01*
X59523333Y-92011904D01*
X59475714Y-91916666D01*
X59475714Y-91726190D01*
X59523333Y-91630952D01*
X60094761Y-90773809D02*
X60142380Y-90869047D01*
X60142380Y-91059523D01*
X60094761Y-91154761D01*
X59999523Y-91202380D01*
X59618571Y-91202380D01*
X59523333Y-91154761D01*
X59475714Y-91059523D01*
X59475714Y-90869047D01*
X59523333Y-90773809D01*
X59618571Y-90726190D01*
X59713809Y-90726190D01*
X59809047Y-91202380D01*
%TO.C,R101*%
X63650952Y-104762380D02*
X63317619Y-104286190D01*
X63079523Y-104762380D02*
X63079523Y-103762380D01*
X63460476Y-103762380D01*
X63555714Y-103810000D01*
X63603333Y-103857619D01*
X63650952Y-103952857D01*
X63650952Y-104095714D01*
X63603333Y-104190952D01*
X63555714Y-104238571D01*
X63460476Y-104286190D01*
X63079523Y-104286190D01*
X64603333Y-104762380D02*
X64031904Y-104762380D01*
X64317619Y-104762380D02*
X64317619Y-103762380D01*
X64222380Y-103905238D01*
X64127142Y-104000476D01*
X64031904Y-104048095D01*
X65222380Y-103762380D02*
X65317619Y-103762380D01*
X65412857Y-103810000D01*
X65460476Y-103857619D01*
X65508095Y-103952857D01*
X65555714Y-104143333D01*
X65555714Y-104381428D01*
X65508095Y-104571904D01*
X65460476Y-104667142D01*
X65412857Y-104714761D01*
X65317619Y-104762380D01*
X65222380Y-104762380D01*
X65127142Y-104714761D01*
X65079523Y-104667142D01*
X65031904Y-104571904D01*
X64984285Y-104381428D01*
X64984285Y-104143333D01*
X65031904Y-103952857D01*
X65079523Y-103857619D01*
X65127142Y-103810000D01*
X65222380Y-103762380D01*
X66508095Y-104762380D02*
X65936666Y-104762380D01*
X66222380Y-104762380D02*
X66222380Y-103762380D01*
X66127142Y-103905238D01*
X66031904Y-104000476D01*
X65936666Y-104048095D01*
X64079523Y-107132380D02*
X63508095Y-107132380D01*
X63793809Y-107132380D02*
X63793809Y-106132380D01*
X63698571Y-106275238D01*
X63603333Y-106370476D01*
X63508095Y-106418095D01*
X64698571Y-106132380D02*
X64793809Y-106132380D01*
X64889047Y-106180000D01*
X64936666Y-106227619D01*
X64984285Y-106322857D01*
X65031904Y-106513333D01*
X65031904Y-106751428D01*
X64984285Y-106941904D01*
X64936666Y-107037142D01*
X64889047Y-107084761D01*
X64793809Y-107132380D01*
X64698571Y-107132380D01*
X64603333Y-107084761D01*
X64555714Y-107037142D01*
X64508095Y-106941904D01*
X64460476Y-106751428D01*
X64460476Y-106513333D01*
X64508095Y-106322857D01*
X64555714Y-106227619D01*
X64603333Y-106180000D01*
X64698571Y-106132380D01*
X65460476Y-107132380D02*
X65460476Y-106132380D01*
X66031904Y-107132380D02*
X65603333Y-106560952D01*
X66031904Y-106132380D02*
X65460476Y-106703809D01*
%TO.C,C101*%
X63535952Y-110137142D02*
X63488333Y-110184761D01*
X63345476Y-110232380D01*
X63250238Y-110232380D01*
X63107380Y-110184761D01*
X63012142Y-110089523D01*
X62964523Y-109994285D01*
X62916904Y-109803809D01*
X62916904Y-109660952D01*
X62964523Y-109470476D01*
X63012142Y-109375238D01*
X63107380Y-109280000D01*
X63250238Y-109232380D01*
X63345476Y-109232380D01*
X63488333Y-109280000D01*
X63535952Y-109327619D01*
X64488333Y-110232380D02*
X63916904Y-110232380D01*
X64202619Y-110232380D02*
X64202619Y-109232380D01*
X64107380Y-109375238D01*
X64012142Y-109470476D01*
X63916904Y-109518095D01*
X65107380Y-109232380D02*
X65202619Y-109232380D01*
X65297857Y-109280000D01*
X65345476Y-109327619D01*
X65393095Y-109422857D01*
X65440714Y-109613333D01*
X65440714Y-109851428D01*
X65393095Y-110041904D01*
X65345476Y-110137142D01*
X65297857Y-110184761D01*
X65202619Y-110232380D01*
X65107380Y-110232380D01*
X65012142Y-110184761D01*
X64964523Y-110137142D01*
X64916904Y-110041904D01*
X64869285Y-109851428D01*
X64869285Y-109613333D01*
X64916904Y-109422857D01*
X64964523Y-109327619D01*
X65012142Y-109280000D01*
X65107380Y-109232380D01*
X66393095Y-110232380D02*
X65821666Y-110232380D01*
X66107380Y-110232380D02*
X66107380Y-109232380D01*
X66012142Y-109375238D01*
X65916904Y-109470476D01*
X65821666Y-109518095D01*
X63583571Y-116732380D02*
X63012142Y-116732380D01*
X63297857Y-116732380D02*
X63297857Y-115732380D01*
X63202619Y-115875238D01*
X63107380Y-115970476D01*
X63012142Y-116018095D01*
X64202619Y-115732380D02*
X64297857Y-115732380D01*
X64393095Y-115780000D01*
X64440714Y-115827619D01*
X64488333Y-115922857D01*
X64535952Y-116113333D01*
X64535952Y-116351428D01*
X64488333Y-116541904D01*
X64440714Y-116637142D01*
X64393095Y-116684761D01*
X64297857Y-116732380D01*
X64202619Y-116732380D01*
X64107380Y-116684761D01*
X64059761Y-116637142D01*
X64012142Y-116541904D01*
X63964523Y-116351428D01*
X63964523Y-116113333D01*
X64012142Y-115922857D01*
X64059761Y-115827619D01*
X64107380Y-115780000D01*
X64202619Y-115732380D01*
X65393095Y-116065714D02*
X65393095Y-116732380D01*
X64964523Y-116065714D02*
X64964523Y-116589523D01*
X65012142Y-116684761D01*
X65107380Y-116732380D01*
X65250238Y-116732380D01*
X65345476Y-116684761D01*
X65393095Y-116637142D01*
X66202619Y-116208571D02*
X65869285Y-116208571D01*
X65869285Y-116732380D02*
X65869285Y-115732380D01*
X66345476Y-115732380D01*
%TO.C,J102*%
X95081885Y-131358580D02*
X95081885Y-132072866D01*
X95034266Y-132215723D01*
X94939028Y-132310961D01*
X94796171Y-132358580D01*
X94700933Y-132358580D01*
X96081885Y-132358580D02*
X95510457Y-132358580D01*
X95796171Y-132358580D02*
X95796171Y-131358580D01*
X95700933Y-131501438D01*
X95605695Y-131596676D01*
X95510457Y-131644295D01*
X96700933Y-131358580D02*
X96796171Y-131358580D01*
X96891409Y-131406200D01*
X96939028Y-131453819D01*
X96986647Y-131549057D01*
X97034266Y-131739533D01*
X97034266Y-131977628D01*
X96986647Y-132168104D01*
X96939028Y-132263342D01*
X96891409Y-132310961D01*
X96796171Y-132358580D01*
X96700933Y-132358580D01*
X96605695Y-132310961D01*
X96558076Y-132263342D01*
X96510457Y-132168104D01*
X96462838Y-131977628D01*
X96462838Y-131739533D01*
X96510457Y-131549057D01*
X96558076Y-131453819D01*
X96605695Y-131406200D01*
X96700933Y-131358580D01*
X97415219Y-131453819D02*
X97462838Y-131406200D01*
X97558076Y-131358580D01*
X97796171Y-131358580D01*
X97891409Y-131406200D01*
X97939028Y-131453819D01*
X97986647Y-131549057D01*
X97986647Y-131644295D01*
X97939028Y-131787152D01*
X97367600Y-132358580D01*
X97986647Y-132358580D01*
X88828571Y-100826200D02*
X88828571Y-100492866D01*
X89352380Y-100350009D02*
X89352380Y-100826200D01*
X88352380Y-100826200D01*
X88352380Y-100350009D01*
X89352380Y-100016676D02*
X88685714Y-99492866D01*
X88685714Y-100016676D02*
X89352380Y-99492866D01*
X88685714Y-99111914D02*
X89685714Y-99111914D01*
X88733333Y-99111914D02*
X88685714Y-99016676D01*
X88685714Y-98826200D01*
X88733333Y-98730961D01*
X88780952Y-98683342D01*
X88876190Y-98635723D01*
X89161904Y-98635723D01*
X89257142Y-98683342D01*
X89304761Y-98730961D01*
X89352380Y-98826200D01*
X89352380Y-99016676D01*
X89304761Y-99111914D01*
X89352380Y-97778580D02*
X88828571Y-97778580D01*
X88733333Y-97826200D01*
X88685714Y-97921438D01*
X88685714Y-98111914D01*
X88733333Y-98207152D01*
X89304761Y-97778580D02*
X89352380Y-97873819D01*
X89352380Y-98111914D01*
X89304761Y-98207152D01*
X89209523Y-98254771D01*
X89114285Y-98254771D01*
X89019047Y-98207152D01*
X88971428Y-98111914D01*
X88971428Y-97873819D01*
X88923809Y-97778580D01*
X88685714Y-97302390D02*
X89352380Y-97302390D01*
X88780952Y-97302390D02*
X88733333Y-97254771D01*
X88685714Y-97159533D01*
X88685714Y-97016676D01*
X88733333Y-96921438D01*
X88828571Y-96873819D01*
X89352380Y-96873819D01*
X89304761Y-96445247D02*
X89352380Y-96350009D01*
X89352380Y-96159533D01*
X89304761Y-96064295D01*
X89209523Y-96016676D01*
X89161904Y-96016676D01*
X89066666Y-96064295D01*
X89019047Y-96159533D01*
X89019047Y-96302390D01*
X88971428Y-96397628D01*
X88876190Y-96445247D01*
X88828571Y-96445247D01*
X88733333Y-96397628D01*
X88685714Y-96302390D01*
X88685714Y-96159533D01*
X88733333Y-96064295D01*
X89352380Y-95588104D02*
X88685714Y-95588104D01*
X88352380Y-95588104D02*
X88400000Y-95635723D01*
X88447619Y-95588104D01*
X88400000Y-95540485D01*
X88352380Y-95588104D01*
X88447619Y-95588104D01*
X89352380Y-94969057D02*
X89304761Y-95064295D01*
X89257142Y-95111914D01*
X89161904Y-95159533D01*
X88876190Y-95159533D01*
X88780952Y-95111914D01*
X88733333Y-95064295D01*
X88685714Y-94969057D01*
X88685714Y-94826200D01*
X88733333Y-94730961D01*
X88780952Y-94683342D01*
X88876190Y-94635723D01*
X89161904Y-94635723D01*
X89257142Y-94683342D01*
X89304761Y-94730961D01*
X89352380Y-94826200D01*
X89352380Y-94969057D01*
X88685714Y-94207152D02*
X89352380Y-94207152D01*
X88780952Y-94207152D02*
X88733333Y-94159533D01*
X88685714Y-94064295D01*
X88685714Y-93921438D01*
X88733333Y-93826200D01*
X88828571Y-93778580D01*
X89352380Y-93778580D01*
X89304761Y-92588104D02*
X89352380Y-92445247D01*
X89352380Y-92207152D01*
X89304761Y-92111914D01*
X89257142Y-92064295D01*
X89161904Y-92016676D01*
X89066666Y-92016676D01*
X88971428Y-92064295D01*
X88923809Y-92111914D01*
X88876190Y-92207152D01*
X88828571Y-92397628D01*
X88780952Y-92492866D01*
X88733333Y-92540485D01*
X88638095Y-92588104D01*
X88542857Y-92588104D01*
X88447619Y-92540485D01*
X88400000Y-92492866D01*
X88352380Y-92397628D01*
X88352380Y-92159533D01*
X88400000Y-92016676D01*
X89352380Y-91588104D02*
X88685714Y-91588104D01*
X88352380Y-91588104D02*
X88400000Y-91635723D01*
X88447619Y-91588104D01*
X88400000Y-91540485D01*
X88352380Y-91588104D01*
X88447619Y-91588104D01*
X89352380Y-90683342D02*
X88352380Y-90683342D01*
X89304761Y-90683342D02*
X89352380Y-90778580D01*
X89352380Y-90969057D01*
X89304761Y-91064295D01*
X89257142Y-91111914D01*
X89161904Y-91159533D01*
X88876190Y-91159533D01*
X88780952Y-91111914D01*
X88733333Y-91064295D01*
X88685714Y-90969057D01*
X88685714Y-90778580D01*
X88733333Y-90683342D01*
X89304761Y-89826200D02*
X89352380Y-89921438D01*
X89352380Y-90111914D01*
X89304761Y-90207152D01*
X89209523Y-90254771D01*
X88828571Y-90254771D01*
X88733333Y-90207152D01*
X88685714Y-90111914D01*
X88685714Y-89921438D01*
X88733333Y-89826200D01*
X88828571Y-89778580D01*
X88923809Y-89778580D01*
X89019047Y-90254771D01*
D14*
%TO.C,F101*%
X73176000Y-95644000D02*
X69646000Y-95644000D01*
X63476000Y-95644000D02*
X67006000Y-95644000D01*
X73176000Y-71484000D02*
X69646000Y-71484000D01*
X63476000Y-71484000D02*
X67006000Y-71484000D01*
X73176000Y-71484000D02*
X73176000Y-95644000D01*
X63476000Y-71484000D02*
X63476000Y-95644000D01*
D15*
%TO.C,P102*%
X132080000Y-140754100D02*
X132080000Y-50584100D01*
X133985000Y-50584100D02*
X133985000Y-41059100D01*
X140335000Y-41059100D02*
X140335000Y-50584100D01*
X140335000Y-140754100D02*
X140335000Y-149644100D01*
X142240000Y-140754100D02*
X132080000Y-140754100D01*
X132080000Y-50584100D02*
X142240000Y-50584100D01*
X140335000Y-41059100D02*
X133985000Y-41059100D01*
X140335000Y-149644100D02*
X133985000Y-149644100D01*
X142240000Y-50584100D02*
X142240000Y-140754100D01*
X133985000Y-149644100D02*
X133985000Y-140754100D01*
%TO.C,P104*%
X191135000Y-41084500D02*
X184785000Y-41084500D01*
X184785000Y-50609500D02*
X184785000Y-41084500D01*
X191135000Y-149669500D02*
X184785000Y-149669500D01*
X193040000Y-140779500D02*
X182880000Y-140779500D01*
X182880000Y-140779500D02*
X182880000Y-50609500D01*
X182880000Y-50609500D02*
X193040000Y-50609500D01*
X193040000Y-50609500D02*
X193040000Y-140779500D01*
X191135000Y-140779500D02*
X191135000Y-149669500D01*
X184785000Y-149669500D02*
X184785000Y-140779500D01*
X191135000Y-41084500D02*
X191135000Y-50609500D01*
%TO.C,SW101*%
X72660000Y-107680000D02*
X72660000Y-112180000D01*
X79160000Y-112180000D02*
X79160000Y-107680000D01*
X75160000Y-113430000D02*
X76660000Y-113430000D01*
X76660000Y-106430000D02*
X75160000Y-106430000D01*
%TO.C,P103*%
X167640000Y-140779500D02*
X157480000Y-140779500D01*
X165735000Y-41084500D02*
X165735000Y-50609500D01*
X165735000Y-41084500D02*
X159385000Y-41084500D01*
X165735000Y-149669500D02*
X159385000Y-149669500D01*
X157480000Y-140779500D02*
X157480000Y-50609500D01*
X159385000Y-149669500D02*
X159385000Y-140779500D01*
X165735000Y-140779500D02*
X165735000Y-149669500D01*
X167640000Y-50609500D02*
X167640000Y-140779500D01*
X157480000Y-50609500D02*
X167640000Y-50609500D01*
X159385000Y-50609500D02*
X159385000Y-41084500D01*
%TO.C,J101*%
X55751800Y-60529800D02*
X55751800Y-92869800D01*
X55751800Y-92869800D02*
X55751800Y-92869800D01*
X47941800Y-59229800D02*
X57061800Y-59229800D01*
X57061800Y-59229800D02*
X57061800Y-130609800D01*
X57061800Y-96969800D02*
X55751800Y-96969800D01*
X49251800Y-60529800D02*
X55751800Y-60529800D01*
X47941800Y-130609800D02*
X47941800Y-59229800D01*
X57061800Y-130609800D02*
X47941800Y-130609800D01*
X58451800Y-124899800D02*
X57451800Y-125399800D01*
X55751800Y-96969800D02*
X55751800Y-129309800D01*
X58451800Y-125899800D02*
X58451800Y-124899800D01*
X55751800Y-92869800D02*
X57061800Y-92869800D01*
X57451800Y-125399800D02*
X58451800Y-125899800D01*
X49251800Y-129309800D02*
X49251800Y-60529800D01*
X55751800Y-129309800D02*
X49251800Y-129309800D01*
%TO.C,R101*%
X61500000Y-107720000D02*
X61500000Y-108050000D01*
X61500000Y-108050000D02*
X68040000Y-108050000D01*
X68040000Y-105310000D02*
X68040000Y-105640000D01*
X68040000Y-108050000D02*
X68040000Y-107720000D01*
X61500000Y-105640000D02*
X61500000Y-105310000D01*
X61500000Y-105310000D02*
X68040000Y-105310000D01*
%TO.C,C101*%
X65335000Y-113870000D02*
X65335000Y-114998000D01*
X65095000Y-110996000D02*
X65095000Y-112190000D01*
X65215000Y-111025000D02*
X65215000Y-112190000D01*
X65376000Y-111076000D02*
X65376000Y-112190000D01*
X65976000Y-111411000D02*
X65976000Y-112190000D01*
X65295000Y-111048000D02*
X65295000Y-112190000D01*
X66416000Y-111888000D02*
X66416000Y-114172000D01*
X65215000Y-113870000D02*
X65215000Y-115035000D01*
X65536000Y-111141000D02*
X65536000Y-112190000D01*
X65295000Y-113870000D02*
X65295000Y-115012000D01*
X65335000Y-111062000D02*
X65335000Y-112190000D01*
X65416000Y-113870000D02*
X65416000Y-114970000D01*
X64895000Y-110963000D02*
X64895000Y-112190000D01*
X65055000Y-110988000D02*
X65055000Y-112190000D01*
X66456000Y-111950000D02*
X66456000Y-114110000D01*
X64695000Y-113870000D02*
X64695000Y-115110000D01*
X64655000Y-110950000D02*
X64655000Y-112190000D01*
X64855000Y-110959000D02*
X64855000Y-112190000D01*
X66656000Y-112366000D02*
X66656000Y-113694000D01*
X64775000Y-110953000D02*
X64775000Y-112190000D01*
X64895000Y-113870000D02*
X64895000Y-115097000D01*
X64975000Y-113870000D02*
X64975000Y-115086000D01*
X65616000Y-111179000D02*
X65616000Y-112190000D01*
X65015000Y-113870000D02*
X65015000Y-115080000D01*
X66696000Y-112493000D02*
X66696000Y-113567000D01*
X66176000Y-113870000D02*
X66176000Y-114468000D01*
X64815000Y-110956000D02*
X64815000Y-112190000D01*
X66216000Y-111634000D02*
X66216000Y-112190000D01*
X65456000Y-113870000D02*
X65456000Y-114954000D01*
X65095000Y-113870000D02*
X65095000Y-115064000D01*
X65776000Y-111270000D02*
X65776000Y-112190000D01*
X65776000Y-113870000D02*
X65776000Y-114790000D01*
X66376000Y-111830000D02*
X66376000Y-114230000D01*
X65936000Y-113870000D02*
X65936000Y-114680000D01*
X66096000Y-113870000D02*
X66096000Y-114546000D01*
X64735000Y-113870000D02*
X64735000Y-115109000D01*
X66016000Y-113870000D02*
X66016000Y-114617000D01*
X65896000Y-113870000D02*
X65896000Y-114710000D01*
X65456000Y-111106000D02*
X65456000Y-112190000D01*
X64815000Y-113870000D02*
X64815000Y-115104000D01*
X62385199Y-111835000D02*
X62785199Y-111835000D01*
X64735000Y-110951000D02*
X64735000Y-112190000D01*
X66736000Y-112660000D02*
X66736000Y-113400000D01*
X66096000Y-111514000D02*
X66096000Y-112190000D01*
X65576000Y-111160000D02*
X65576000Y-112190000D01*
X65496000Y-111123000D02*
X65496000Y-112190000D01*
X65696000Y-111222000D02*
X65696000Y-112190000D01*
X65656000Y-113870000D02*
X65656000Y-114860000D01*
X65496000Y-113870000D02*
X65496000Y-114937000D01*
X64935000Y-113870000D02*
X64935000Y-115092000D01*
X66176000Y-111592000D02*
X66176000Y-112190000D01*
X65576000Y-113870000D02*
X65576000Y-114900000D01*
X65816000Y-113870000D02*
X65816000Y-114765000D01*
X66136000Y-111552000D02*
X66136000Y-112190000D01*
X65936000Y-111380000D02*
X65936000Y-112190000D01*
X66016000Y-111443000D02*
X66016000Y-112190000D01*
X66136000Y-113870000D02*
X66136000Y-114508000D01*
X65696000Y-113870000D02*
X65696000Y-114838000D01*
X65015000Y-110980000D02*
X65015000Y-112190000D01*
X66576000Y-112171000D02*
X66576000Y-113889000D01*
X64855000Y-113870000D02*
X64855000Y-115101000D01*
X65416000Y-111090000D02*
X65416000Y-112190000D01*
X65135000Y-111005000D02*
X65135000Y-112190000D01*
X65255000Y-111036000D02*
X65255000Y-112190000D01*
X64935000Y-110968000D02*
X64935000Y-112190000D01*
X65976000Y-113870000D02*
X65976000Y-114649000D01*
X66336000Y-111776000D02*
X66336000Y-114284000D01*
X66256000Y-111679000D02*
X66256000Y-114381000D01*
X64775000Y-113870000D02*
X64775000Y-115107000D01*
X65255000Y-113870000D02*
X65255000Y-115024000D01*
X66056000Y-111478000D02*
X66056000Y-112190000D01*
X64655000Y-113870000D02*
X64655000Y-115110000D01*
X65376000Y-113870000D02*
X65376000Y-114984000D01*
X65656000Y-111200000D02*
X65656000Y-112190000D01*
X64695000Y-110950000D02*
X64695000Y-112190000D01*
X66056000Y-113870000D02*
X66056000Y-114582000D01*
X65736000Y-113870000D02*
X65736000Y-114815000D01*
X65736000Y-111245000D02*
X65736000Y-112190000D01*
X66616000Y-112262000D02*
X66616000Y-113798000D01*
X65135000Y-113870000D02*
X65135000Y-115055000D01*
X65896000Y-111350000D02*
X65896000Y-112190000D01*
X64975000Y-110974000D02*
X64975000Y-112190000D01*
X65175000Y-113870000D02*
X65175000Y-115046000D01*
X62585199Y-111635000D02*
X62585199Y-112035000D01*
X65616000Y-113870000D02*
X65616000Y-114881000D01*
X65055000Y-113870000D02*
X65055000Y-115072000D01*
X65175000Y-111014000D02*
X65175000Y-112190000D01*
X65856000Y-111322000D02*
X65856000Y-112190000D01*
X65816000Y-111295000D02*
X65816000Y-112190000D01*
X66216000Y-113870000D02*
X66216000Y-114426000D01*
X66296000Y-111726000D02*
X66296000Y-114334000D01*
X65856000Y-113870000D02*
X65856000Y-114738000D01*
X66496000Y-112017000D02*
X66496000Y-114043000D01*
X65536000Y-113870000D02*
X65536000Y-114919000D01*
X66536000Y-112090000D02*
X66536000Y-113970000D01*
X66775000Y-113030000D02*
G75*
G03*
X66775000Y-113030000I-2120000J0D01*
G01*
%TO.C,J102*%
X100927600Y-131016200D02*
X91807600Y-131016200D01*
X101317600Y-125806200D02*
X102317600Y-126306200D01*
X99617600Y-93276200D02*
X100927600Y-93276200D01*
X99617600Y-60936200D02*
X99617600Y-93276200D01*
X99617600Y-97376200D02*
X99617600Y-129716200D01*
X102317600Y-125306200D02*
X101317600Y-125806200D01*
X93117600Y-60936200D02*
X99617600Y-60936200D01*
X91807600Y-59636200D02*
X100927600Y-59636200D01*
X102317600Y-126306200D02*
X102317600Y-125306200D01*
X100927600Y-97376200D02*
X99617600Y-97376200D01*
X93117600Y-129716200D02*
X93117600Y-60936200D01*
X99617600Y-129716200D02*
X93117600Y-129716200D01*
X100927600Y-59636200D02*
X100927600Y-131016200D01*
X91807600Y-131016200D02*
X91807600Y-59636200D01*
X99617600Y-93276200D02*
X99617600Y-93276200D01*
%TD*%
D16*
%TO.C,P102*%
X137160000Y-44297600D03*
X137096500Y-146578600D03*
%TD*%
%TO.C,P104*%
X187896500Y-146604000D03*
X187960000Y-44323000D03*
%TD*%
%TO.C,P103*%
X162560000Y-44323000D03*
X162496500Y-146604000D03*
%TD*%
M02*
